<?xml version="1.0" encoding="UTF-8" standalone="no"?>
<!-- Created with Inkscape (http://www.inkscape.org/) -->

<svg
   xmlns:dc="http://purl.org/dc/elements/1.1/"
   xmlns:cc="http://creativecommons.org/ns#"
   xmlns:rdf="http://www.w3.org/1999/02/22-rdf-syntax-ns#"
   xmlns:svg="http://www.w3.org/2000/svg"
   xmlns="http://www.w3.org/2000/svg"
   xmlns:sodipodi="http://sodipodi.sourceforge.net/DTD/sodipodi-0.dtd"
   xmlns:inkscape="http://www.inkscape.org/namespaces/inkscape"
   width="1078.0918"
   height="420.02744"
   viewBox="0 0 1078.0919 420.02742"
   id="svg2"
   version="1.1"
   inkscape:version="0.91 r13725"
   sodipodi:docname="helloproclub-logo-white-simple.svg"
   inkscape:export-filename="/home/wisnu/Repos/helloproclub/helloproclub-frontend/src/assets/img/helloproclub-logo-white.png"
   inkscape:export-xdpi="270"
   inkscape:export-ydpi="270">
  <defs
     id="defs4">
    <clipPath
       clipPathUnits="userSpaceOnUse"
       id="clipPath4448">
      <rect
         style="opacity:1;fill:#554400;fill-opacity:1;stroke:#856300;stroke-width:1.41111112;stroke-miterlimit:4;stroke-dasharray:none;stroke-opacity:1"
         id="rect4450"
         width="371.75409"
         height="129.42972"
         x="-93.163467"
         y="105.45406" />
    </clipPath>
  </defs>
  <sodipodi:namedview
     id="base"
     pagecolor="#ffffff"
     bordercolor="#666666"
     borderopacity="1.0"
     inkscape:pageopacity="0.0"
     inkscape:pageshadow="2"
     inkscape:zoom="0.7"
     inkscape:cx="521.87531"
     inkscape:cy="84.684106"
     inkscape:document-units="px"
     inkscape:current-layer="layer1"
     showgrid="false"
     fit-margin-top="10"
     fit-margin-left="10"
     fit-margin-right="10"
     fit-margin-bottom="10"
     units="px"
     inkscape:window-width="1366"
     inkscape:window-height="744"
     inkscape:window-x="0"
     inkscape:window-y="24"
     inkscape:window-maximized="1" />
  <metadata
     id="metadata7">
    <rdf:RDF>
      <cc:Work
         rdf:about="">
        <dc:format>image/svg+xml</dc:format>
        <dc:type
           rdf:resource="http://purl.org/dc/dcmitype/StillImage" />
        <dc:title></dc:title>
      </cc:Work>
    </rdf:RDF>
  </metadata>
  <g
     inkscape:label="Layer 1"
     inkscape:groupmode="layer"
     id="layer1"
     transform="translate(190.33093,-252.42294)">
    <g
       id="layer1-6"
       inkscape:label="Layer 1"
       transform="matrix(3.5433071,0,0,3.5433071,25.040727,-111.23322)"
       clip-path="url(#clipPath4448)"
       style="fill:#ffffff">
      <g
         inkscape:export-ydpi="8.5100002"
         inkscape:export-xdpi="8.5100002"
         transform="matrix(0.25702518,0,0,0.25702518,70.844519,141.4176)"
         id="g4690"
         style="fill:#ffffff">
        <path
           style="fill:#ffffff;fill-opacity:1;stroke-width:0.26458332"
           d="m -344.01536,254.74581 c -38.26897,-24.51084 -69.79076,-44.74567 -70.04843,-44.96631 -0.4448,-0.38084 -0.4685,-2.6316 -0.4685,-44.4877 0,-43.01294 0.0121,-44.08342 0.49724,-43.95655 0.27349,0.0715 31.79529,21.12034 70.04844,46.77516 38.25315,25.65482 69.72978,46.64522 69.94807,46.64532 0.21828,1.1e-4 32.46786,-21.4662 71.66575,-47.70292 39.19787,-26.23669 71.50301,-47.76433 71.78921,-47.83918 0.51099,-0.13361 0.51748,-0.004 0.36037,7.24247 -0.088,4.0582 -0.33907,23.74963 -0.55798,43.75875 -0.21889,20.00911 -0.45136,36.61833 -0.51658,36.90937 -0.0818,0.3647 -22.23177,14.77502 -71.27242,46.36823 -39.1346,25.21149 -71.31389,45.83446 -71.50952,45.8288 -0.19564,-0.006 -31.66669,-20.06457 -69.93565,-44.57544 z"
           id="path4570"
           inkscape:connector-curvature="0" />
        <path
           style="fill:#ffffff;fill-opacity:1;stroke-width:0.26458332"
           d="m 265.51061,214.66599 c -3.41889,-2.08452 -1.97321,-7.40535 2.01294,-7.40879 3.11997,-0.003 4.9733,2.58773 3.88681,5.43261 -0.8777,2.29825 -3.77812,3.26978 -5.89975,1.97618 z"
           id="path4524"
           inkscape:connector-curvature="0" />
        <path
           style="fill:#ffffff;fill-opacity:1;stroke-width:0.26458332"
           d="m -500.13071,168.83719 c -0.0716,-0.18817 -0.0996,-19.91556 -0.0622,-43.8386 l 0.0679,-43.496466 36.77205,-24.16252 c 20.22463,-13.28938 36.86398,-24.0706 36.97632,-23.95826 0.11235,0.11235 0.17414,19.59243 0.13732,43.28907 l -0.0669,43.084796 -36.38021,24.44792 c -20.00911,13.44634 -36.59033,24.56678 -36.84715,24.71206 -0.33619,0.19018 -0.50339,0.16833 -0.5971,-0.078 z"
           id="path4522"
           inkscape:connector-curvature="0" />
        <path
           style="fill:#ffffff;fill-opacity:1;stroke-width:0.26458332"
           d="M 85.794564,-9.2749487 C 74.866455,-9.2908237 66.903839,-8.4114281 58.217954,-6.2306793 38.815614,-1.3593827 23.413271,9.1403951 13.252742,24.422755 5.7313816,35.735571 1.6748905,48.988444 0.57702844,65.836766 -0.66717203,84.930581 3.3018822,103.71576 11.446133,117.28063 c 13.249349,22.06789 35.555695,34.16713 65.881765,35.73478 9.744551,0.50374 21.691041,-0.40177 30.162502,-2.28565 7.51168,-1.67045 12.50148,-3.41503 19.18229,-6.70709 7.61053,-3.75023 13.18752,-7.73432 19.05775,-13.61466 5.5934,-5.603 10.10483,-11.89048 13.48342,-18.79163 6.07971,-12.418408 8.69018,-24.82009 8.71678,-41.413989 0.0132,-8.243623 -0.20482,-11.154463 -1.32602,-17.706419 C 163.87226,36.529003 157.35163,23.712507 146.39913,12.780559 139.03302,5.4282909 131.77299,0.65126538 122.30706,-3.0722158 111.36628,-7.3758754 100.31324,-9.2537291 85.794564,-9.2749487 Z M 85.27315,27.388972 c 1.969349,0.0073 3.886377,0.109749 5.446181,0.316256 7.420758,0.982504 12.755309,3.398864 17.475419,7.915275 5.37345,5.141516 8.6246,12.370726 10.31616,22.940222 0.40542,2.533385 0.48783,4.592796 0.48783,12.303124 0.001,9.71087 -0.11061,11.155786 -1.33687,17.26819 -3.17728,15.837401 -11.32602,24.934971 -24.723556,27.602441 l -5.16e-4,0 c -2.955081,0.58841 -9.655833,0.84799 -12.954764,0.50179 -17.780373,-1.86608 -27.594187,-12.69791 -30.343366,-33.491518 -0.645692,-4.887595 -0.64598,-16.746855 0,-21.141319 0.964589,-6.561984 2.457796,-11.762026 4.596617,-16.010414 4.82478,-9.583552 11.99099,-15.237168 22.165571,-17.486259 2.161165,-0.477732 5.589045,-0.730012 8.871294,-0.717788 z"
           id="path4520"
           inkscape:connector-curvature="0" />
        <path
           style="fill:#ffffff;fill-opacity:1;stroke-width:0.26458332"
           d="m 239.25313,152.6126 c -8.72411,-1.08728 -16.15118,-3.35164 -23.54792,-7.17929 -15.21367,-7.87268 -26.38285,-20.95196 -32.7561,-38.35786 -7.46983,-20.400726 -7.00562,-47.251536 1.17668,-68.062446 7.1687,-18.23297 19.43907,-31.8070701 36.36399,-40.2277801 8.97699,-4.46632 17.99941,-6.88133 28.81751,-7.71345 4.99978,-0.3846 14.75023,-0.17124 19.04999,0.41685 8.00741,1.09517 15.57563,3.17085 22.02656,6.04105 l 1.52136,0.67688 0,10.05314 c 0,5.5292101 -0.0941,10.1112601 -0.20913,10.1823501 -0.11501,0.0711 -0.76896,-0.2192 -1.45317,-0.64508 -8.265,-5.14426 -17.31327,-8.3923701 -26.91269,-9.6610501 -4.40383,-0.58203 -11.77213,-0.57491 -16.27188,0.0156 -21.07591,2.7663301 -37.43584,16.6763001 -44.97308,38.2382501 -2.96129,8.47143 -4.36898,17.2721 -4.37081,27.32574 -0.004,21.81739 7.53486,40.636986 20.46473,51.087366 7.92911,6.4086 15.64195,9.6775 26.10104,11.06228 3.23485,0.42831 12.33106,0.41812 15.74271,-0.0177 10.33456,-1.31993 19.57868,-4.71106 28.02611,-10.2812 1.60001,-1.05503 3.00315,-1.91823 3.11806,-1.91823 0.11491,0 0.20894,4.22431 0.20894,9.38736 l 0,9.38734 -1.38906,0.81092 c -7.54825,4.40661 -17.5995,7.63011 -28.50884,9.14297 -4.33742,0.6015 -18.11766,0.74771 -22.225,0.23582 z"
           id="path4516"
           inkscape:connector-curvature="0" />
        <path
           style="fill:#ffffff;fill-opacity:1;stroke-width:0.26458332"
           d="m 413.87811,152.73393 c -8.48495,-0.44878 -16.13693,-2.34675 -22.65071,-5.61816 -16.56932,-8.32162 -25.67493,-25.74025 -27.35726,-52.333256 -0.19923,-3.14952 -0.26587,-19.73416 -0.21089,-52.4937 l 0.0803,-47.8895901 9.525,0 9.525,0 0.15394,48.4187501 c 0.13631,42.8738 0.2042,48.8273 0.59298,51.98605 1.88553,15.320566 5.64351,24.849006 12.47175,31.622286 5.97119,5.92312 13.15762,8.86782 23.57051,9.65821 8.17737,0.62069 15.76067,-0.79946 22.74207,-4.25899 13.42229,-6.65126 22.14465,-19.83748 25.18582,-38.075256 0.42717,-2.56175 0.46948,-6.51701 0.54338,-50.7804 0.0574,-34.3845601 0.16261,-48.1016501 0.37089,-48.3526001 0.4323,-0.52091 18.54681,-0.51322 18.97943,0.008 0.219,0.2639 0.27985,20.6832501 0.23083,77.4567701 l -0.0666,77.098496 -9.65729,0 -9.65729,0 -0.0686,-13.03073 c -0.0397,-7.52752 -0.16955,-13.03073 -0.30758,-13.03073 -0.13142,0 -0.80386,0.98227 -1.49434,2.18282 -5.65134,9.8262 -12.96136,17.15471 -21.54508,21.59958 -5.16683,2.67551 -9.73187,4.19697 -15.57842,5.1921 -2.1153,0.36004 -9.92111,0.97295 -11.14449,0.87508 -0.21828,-0.0175 -2.12328,-0.12306 -4.23334,-0.23466 z"
           id="path4514"
           inkscape:connector-curvature="0" />
        <path
           style="fill:#ffffff;fill-opacity:1;stroke-width:0.26458332"
           d="m 522.22476,-79.949178 -0.0661,114.634353 -0.0666,114.633825 9.59165,-0.0692 9.59115,-0.0698 0.13229,-12.30313 c 0.0806,-7.49358 0.23008,-12.28992 0.3824,-12.26952 0.13759,0.0185 0.971,1.17702 1.85209,2.5745 8.64232,13.70716 20.09452,21.80516 34.8325,24.63054 1.95085,0.37399 4.7372,0.79044 6.19239,0.92554 3.61135,0.33528 12.30383,0.12573 16.00729,-0.38603 19.529,-2.69856 35.73682,-13.38715 46.23337,-30.49013 6.97484,-11.36473 11.48442,-25.435562 13.16508,-41.076565 0.58939,-5.485156 0.79791,-16.373448 0.42064,-21.960416 -2.04118,-30.226582 -14.34764,-51.9949902 -35.08055,-62.0541044 -7.84897,-3.8081214 -15.39372,-5.5578374 -25.26771,-5.8595683 -12.95421,-0.3958695 -24.09764,2.1746633 -34.1085,7.8677293 -9.58043,5.448247 -16.73452,12.7753264 -23.38617,23.9525434 -0.46535,0.78195 -0.83437,1.153107 -0.99116,0.996315 -0.15462,-0.154622 -0.27538,-19.9628914 -0.31678,-51.96324 l -0.0672,-51.713632 -9.525,0 z m 71.32487,87.5853375 c 7.28342,0.018627 14.42468,1.5127816 20.39151,4.5082615 6.73508,3.381164 11.78904,7.906121 16.23259,14.533483 7.72511,11.521678 11.17864,26.561441 10.42003,45.379137 -1.27619,31.657449 -14.11727,54.280509 -35.03557,61.724409 -2.65269,0.94398 -7.44725,1.95688 -10.81744,2.28512 -10.58161,1.03061 -21.29779,-1.40329 -30.00076,-6.81302 -13.07486,-8.12731 -21.60034,-22.63452 -23.07508,-39.264268 -0.21243,-2.39694 -0.27448,-8.103156 -0.19428,-17.935337 0.10567,-12.958259 0.17343,-14.768406 0.66715,-17.859374 2.05771,-12.882801 6.99481,-23.336568 14.84042,-31.421864 4.09266,-4.21767 7.59204,-6.835695 12.76459,-9.549791 7.11525,-3.7334562 15.55226,-5.6078438 23.80684,-5.5867565 z"
           id="path4512"
           inkscape:connector-curvature="0" />
        <path
           style="fill:#ffffff;fill-opacity:1;stroke-width:0.26458332"
           d="m -226.20602,-67.64346 c -39.67861,-0.0025 -40.41074,0.0069 -40.67969,0.509508 -0.29707,0.555069 -0.40955,215.255342 -0.11316,216.027662 0.14483,0.3774 2.54722,0.41857 24.4729,0.41857 l 24.31275,0 0.0672,-37.24011 0.0667,-37.2401 16.00729,-0.160205 c 17.13191,-0.171609 20.52191,-0.37502 28.575,-1.713574 22.00037,-3.656833 39.97193,-13.85353 51.72348,-29.347054 7.07546,-9.32852 10.98997,-19.200521 12.74651,-32.146874 0.54883,-4.0452412 0.62357,-15.2802961 0.13229,-19.84375 -1.47957,-13.742749 -5.3227,-24.510867 -11.88508,-33.299267 -2.01658,-2.700629 -6.54981,-7.346262 -9.32553,-9.557041 -10.49613,-8.359828 -24.84477,-13.537539 -42.8625,-15.466748 -7.89646,-0.84545 -13.16477,-0.938027 -53.23808,-0.941017 z m 16.55765,37.610626 c 7.45837,0.0012 17.61339,0.19259 19.61481,0.475933 7.53414,1.066588 13.09256,2.943754 17.82476,6.019773 2.36654,1.538341 6.33325,5.714153 7.7401,8.147844 3.32737,5.7559837 4.70855,12.3390815 4.38009,20.8777941 -0.71887,18.6899809 -10.64934,29.1271319 -29.95527,31.4838549 -2.69621,0.329089 -6.11286,0.421164 -15.63265,0.421164 -6.7002,0 -12.26142,-0.07922 -12.35842,-0.176212 -0.097,-0.097 -0.17674,-15.143692 -0.17674,-33.4372479 0,-29.1479551 0.0492,-33.3018341 0.39481,-33.5886421 0.18968,-0.157401 3.69348,-0.225028 8.16851,-0.224261 z"
           id="path4508"
           inkscape:connector-curvature="0" />
        <path
           style="fill:#ffffff;fill-opacity:1;stroke-width:0.26458332"
           d="m -96.855895,149.13626 c -0.097,-0.0969 -0.17639,-34.85896 -0.17639,-77.248906 0,-75.9286701 0.008,-77.0767001 0.51178,-77.3465201 0.61103,-0.32703 46.53193,-0.38291 47.04472,-0.0573 0.2532,0.16082 0.34403,3.40932 0.39687,14.1953 0.0477,9.7342001 0.1555,14.0157401 0.35462,14.0820701 0.15735,0.0524 0.6191,-0.7711 1.02611,-1.83007 3.79566,-9.87594 9.93746,-18.0815701 17.0956,-22.8403101 7.21127,-4.79404 16.97644,-7.08515 26.6584399,-6.25459 3.91770999,0.33607 7.38941,1.13982 7.91654,1.83277 0.25834,0.33956 0.32983,5.10082 0.32668,21.7492701 -0.003,11.723 -0.098,21.46245 -0.21278,21.64319 -0.15663,0.24667 -0.79917,0.0689 -2.57564,-0.71255 -2.8517,-1.25447 -5.95164,-2.17144 -9.51065,-2.81327 -3.6507199,-0.65836 -11.5169399,-0.67855 -14.7031899,-0.0377 -14.14293,2.84442 -23.08992,14.00582 -25.81701,32.20677 -0.41267,2.75416 -0.46492,6.86298 -0.55105,43.325516 l -0.0951,40.28281 -23.75656,0 c -13.06613,0 -23.83597,-0.0794 -23.93297,-0.17639 z"
           id="path4504"
           inkscape:connector-curvature="0" />
        <path
           style="fill:#ffffff;fill-opacity:1;stroke-width:0.26458332"
           d="m 313.19434,148.98193 c -0.0691,-0.1819 -0.0951,-51.765726 -0.0579,-114.630726 l 0.0677,-114.3 9.525,0 9.525,0 0.0664,114.63073 0.0665,114.630726 -9.5336,0 c -7.38357,0 -9.56194,-0.0746 -9.65912,-0.33073 z"
           id="path4502"
           inkscape:connector-curvature="0" />
        <path
           style="fill:#ffffff;fill-opacity:1;stroke-width:0.26458332"
           d="m -415.47201,105.47916 c 0.0879,-4.04979 0.3387,-23.496236 0.55737,-43.214306 0.21867,-19.71807 0.4513,-36.08917 0.51695,-36.38021 0.0816,-0.36182 21.96415,-14.78431 69.18845,-45.60123 37.988,-24.78961 69.31327,-45.13591 69.61172,-45.21393 0.5403,-0.14132 0.54192,-0.11049 0.38264,7.23661 -0.088,4.05821 -0.33906,23.74964 -0.55798,43.75875 -0.21889,20.0091199 -0.45178,36.61834 -0.5175,36.90938 -0.0822,0.36396 -21.69723,14.44784 -69.23412,45.11146 -38.01302,24.52026 -69.33795,44.621556 -69.61095,44.669526 -0.47878,0.0842 -0.49071,-0.17386 -0.33658,-7.27605 z"
           id="path4500"
           inkscape:connector-curvature="0" />
        <path
           style="fill:#ffffff;fill-opacity:1;stroke-width:0.26458332"
           d="m -500.09879,67.334344 c -0.24141,-0.3906 -1.23745,-85.05888 -1.00339,-85.29294 0.7838,-0.7838 140.17549,-93.818464 140.33182,-93.662134 0.10732,0.10733 0.43855,20.964114 0.73607,46.348424 0.43506,37.11932 0.47566,46.21218 0.20741,46.45427 -0.25333,0.22863 -139.09683,85.83436 -139.94911,86.28743 -0.0991,0.0526 -0.24435,-0.008 -0.3228,-0.13505 z"
           id="path4496"
           inkscape:connector-curvature="0" />
      </g>
      <g
         inkscape:export-ydpi="8.5100002"
         inkscape:export-xdpi="8.5100002"
         style="fill:#ffffff"
         id="g4748"
         transform="matrix(0.25702518,0,0,0.25702518,70.844519,23.317877)">
        <path
           inkscape:connector-curvature="0"
           id="path4692"
           d="m -344.01536,254.74581 c -38.26897,-24.51084 -69.79076,-44.74567 -70.04843,-44.96631 -0.4448,-0.38084 -0.4685,-2.6316 -0.4685,-44.4877 0,-43.01294 0.0121,-44.08342 0.49724,-43.95655 0.27349,0.0715 31.79529,21.12034 70.04844,46.77516 38.25315,25.65482 69.72978,46.64522 69.94807,46.64532 0.21828,1.1e-4 32.46786,-21.4662 71.66575,-47.70292 39.19787,-26.23669 71.50301,-47.76433 71.78921,-47.83918 0.51099,-0.13361 0.51748,-0.004 0.36037,7.24247 -0.088,4.0582 -0.33907,23.74963 -0.55798,43.75875 -0.21889,20.00911 -0.45136,36.61833 -0.51658,36.90937 -0.0818,0.3647 -22.23177,14.77502 -71.27242,46.36823 -39.1346,25.21149 -71.31389,45.83446 -71.50952,45.8288 -0.19564,-0.006 -31.66669,-20.06457 -69.93565,-44.57544 z"
           style="fill:#ffffff;fill-opacity:1;stroke-width:0.26458332" />
        <path
           inkscape:connector-curvature="0"
           id="path4694"
           d="m -48.864912,204.9187 c -0.968494,0.0115 -1.580378,0.0947 -1.759585,0.24339 -0.308428,0.25598 -0.37052,2.57537 -0.37052,13.90097 0,7.47651 -0.10268,13.5935 -0.22841,13.5935 -0.12573,0 -0.564877,-0.48551 -0.976167,-1.07903 -1.74064,-2.51177 -4.725175,-4.51853 -8.077025,-5.43118 -2.44398,-0.66545 -7.379734,-0.61132 -10.070703,0.1106 -8.702072,2.33444 -14.208614,9.81911 -15.316896,20.8194 -0.607829,6.03308 0.556139,12.40882 3.108339,17.03046 1.164979,2.1096 4.065516,5.18287 5.981546,6.33762 1.949029,1.17461 4.764469,2.12645 7.116879,2.40554 l 0,-5.3e-4 c 6.838979,0.81134 13.7171,-1.89484 17.06304,-6.71381 0.551611,-0.79446 1.091821,-1.4487 1.200959,-1.45468 0.109141,-0.006 0.198438,1.53382 0.198438,3.42046 0,3.12063 0.04653,3.45501 0.512114,3.70417 0.59844,0.3203 4.493496,0.36356 4.979024,0.0553 0.264592,-0.1674 0.317985,-7.05008 0.264584,-33.53231 l -0.06718,-33.32096 -2.47375,-0.0765 c -0.399188,-0.0123 -0.761855,-0.0162 -1.084686,-0.0124 z m -15.357721,25.74676 c 1.41201,0.0189 2.760681,0.18428 3.702616,0.50176 1.60596,0.54128 3.365508,1.48312 4.721677,2.52751 1.33345,1.0269 3.374501,4.07268 4.061251,6.06009 0.58038,1.67929 0.610063,2.12043 0.603062,9.04132 -0.0071,7.17576 -0.01716,7.30234 -0.700214,9.18961 -0.96692,2.67171 -1.908257,4.1801 -3.771347,6.04356 -1.872009,1.87238 -4.192643,3.11074 -6.898804,3.68141 -7.863409,1.65828 -14.381022,-2.62876 -16.567462,-10.89752 -0.776941,-2.93833 -0.96498,-8.65341 -0.392742,-11.93517 1.21897,-6.99066 4.74336,-11.6736 10.213329,-13.57024 1.293212,-0.44842 3.213195,-0.66664 5.028634,-0.64233 z"
           style="fill:#ffffff;fill-opacity:1;stroke-width:0.26458332" />
        <path
           inkscape:connector-curvature="0"
           id="path4696"
           d="m 16.210183,225.67558 c -1.801743,-6e-5 -3.603918,0.15015 -4.763534,0.45061 -6.7376386,1.74583 -12.01151988,6.87557 -14.4663002,14.07099 -2.4541586,7.19352 -1.654085,17.21215 1.878957,23.52982 1.30457841,2.33283 4.1474972,5.31109 6.2750673,6.57376 2.0209907,1.19943 5.2060289,2.24986 7.7540489,2.55746 l 0,-5e-4 c 5.482039,0.66183 12.745664,-0.85799 16.947803,-3.54605 l 1.454692,-0.9307 0,-2.64893 c 0,-1.5856 -0.106058,-2.64893 -0.264067,-2.64893 -0.14518,0 -0.829794,0.4023 -1.521354,0.89453 -3.916871,2.78799 -9.431618,4.39113 -13.853417,4.02714 -3.878202,-0.31922 -6.9779302,-1.66716 -9.3973595,-4.08659 -2.6164117,-2.61641 -4.5971354,-7.75944 -4.5971354,-11.93673 l 0,-1.59835 15.9540649,0 c 12.05619,0 16.031954,-0.0779 16.271875,-0.31782 0.40258,-0.40267 0.414496,-3.77423 0.02429,-6.95822 -1.119449,-9.13495 -5.657612,-15.09183 -12.936161,-16.98088 -1.15841,-0.30028 -2.959722,-0.45056 -4.761466,-0.45061 z m -0.106971,4.92321 c 3.156188,0.028 6.105104,1.15244 8.112167,3.15949 2.219251,2.21925 4.047871,7.0458 3.85041,10.1632 l -0.08268,1.30278 -13.013158,0.0687 c -7.1574502,0.0377 -13.0710993,-0.0241 -13.1408011,-0.13695 -0.1991995,-0.32229 0.2819135,-2.54611 0.993222,-4.59145 1.9039099,-5.47473 5.9067964,-9.02046 11.0716751,-9.80715 0.741412,-0.11292 1.480817,-0.1651 2.209167,-0.15864 z"
           style="fill:#ffffff;fill-opacity:1;stroke-width:0.26458332" />
        <path
           inkscape:connector-curvature="0"
           id="path4698"
           d="m 62.03736,225.61306 c -4.930444,-0.0441 -11.481583,1.63459 -14.59394,3.88916 l -1.071772,0.77618 0,2.76056 c 0,1.51844 0.102518,2.824 0.227378,2.9011 0.12483,0.0772 0.868966,-0.34277 1.653646,-0.93326 1.977548,-1.48823 5.122431,-3.03271 7.56853,-3.71711 2.97828,-0.83296 7.293187,-0.83068 9.399426,0.006 3.442944,1.36713 5.372539,4.65849 5.906098,10.0733 0.175422,1.7803 0.158202,1.86232 -0.445966,2.10891 -0.34571,0.14108 -4.075779,0.74443 -8.288901,1.34101 -10.539198,1.49233 -13.577043,2.56445 -16.736962,5.90558 -1.443191,1.52596 -2.103501,2.66169 -2.877859,4.95113 -0.719241,2.1265 -0.65341,6.69546 0.12764,8.86354 1.73051,4.80351 5.549051,7.62936 11.272179,8.3421 6.032391,0.75128 11.831706,-1.67251 15.26677,-6.38048 0.734319,-1.00642 1.439159,-1.82986 1.566828,-1.82986 0.12763,0 0.232026,1.59504 0.232026,3.54396 0,2.9872 0.06578,3.56878 0.418582,3.70417 0.23019,0.0883 1.353047,0.1602 2.494936,0.1602 1.573821,0 2.181098,-0.10522 2.510959,-0.4351 0.396888,-0.39691 0.4254,-1.86714 0.320911,-16.7349 -0.126892,-18.05699 -0.138833,-18.19214 -1.893941,-21.90512 -2.035971,-4.30715 -5.43951,-6.54262 -11.057723,-7.26313 -0.623459,-0.08 -1.294495,-0.12136 -1.998845,-0.12763 z m 8.62738,23.00996 c 0.110887,-2.9e-4 0.184729,0.005 0.217559,0.0181 0.38336,0.14711 0.416274,0.58867 0.281635,3.79873 -0.0838,1.99771 -0.334385,4.28191 -0.556556,5.07566 -1.325509,4.73591 -4.55681,8.34795 -8.77879,9.81337 -1.970752,0.68403 -5.357043,0.8872 -7.122565,0.42736 -4.295558,-1.11887 -6.482291,-3.94449 -6.482291,-8.37674 0,-4.93511 2.274072,-7.39508 8.069791,-8.72918 2.77699,-0.63924 12.707924,-2.02293 14.371217,-2.02727 z"
           style="fill:#ffffff;fill-opacity:1;stroke-width:0.26458332" />
        <path
           inkscape:connector-curvature="0"
           id="path4700"
           d="m 415.23482,272.85212 c -4.45352,-0.57727 -8.70826,-2.76238 -11.72649,-6.02247 -5.40097,-5.83369 -7.30475,-15.1869 -4.94996,-24.31889 0.70517,-2.73468 2.80125,-6.95738 4.46135,-8.98771 2.53669,-3.10242 6.43879,-5.70531 10.34706,-6.902 5.11315,-1.56562 12.04206,-1.26365 16.52696,0.72022 l 1.18229,0.52298 0,2.79302 c 0,2.12333 -0.0829,2.79299 -0.34589,2.79299 -0.19026,0 -1.1543,-0.40671 -2.1423,-0.90381 -2.68473,-1.35078 -5.07381,-1.87428 -8.49202,-1.86087 -4.76752,0.0188 -7.9149,1.28775 -11.11885,4.4831 -3.37314,3.3641 -5.09114,7.6395 -5.34421,13.2996 -0.44069,9.85568 3.61299,16.75413 11.1714,19.01118 1.94722,0.58148 6.73346,0.65805 8.86354,0.14179 0.80036,-0.19396 2.67126,-0.9371 4.15758,-1.65142 1.4863,-0.71429 2.76622,-1.29873 2.84427,-1.29873 0.078,0 0.1419,1.1889 0.1419,2.64202 l 0,2.64202 -1.57449,0.79481 c -3.72173,1.8787 -9.2838,2.71375 -14.00214,2.10217 z"
           style="fill:#ffffff;fill-opacity:1;stroke-width:0.26458332" />
        <path
           inkscape:connector-curvature="0"
           id="path4702"
           d="m 460.41201,225.68023 c -1.89791,0.0196 -3.7609,0.17611 -5.12683,0.47387 -6.72561,1.46619 -11.87845,5.61425 -14.60995,11.76052 -2.47473,5.56845 -2.886,14.35404 -0.95964,20.50262 2.59942,8.29683 8.92698,13.46935 17.68625,14.45752 1.01868,0.11491 2.86414,0.14949 4.10105,0.0765 6.02445,-0.35552 10.2028,-2.11201 14.0317,-5.89886 4.08852,-4.04365 6.18765,-9.24621 6.52158,-16.16337 0.27911,-5.78141 -0.56925,-10.33068 -2.75746,-14.79288 -1.0204,-2.08082 -1.62206,-2.90465 -3.49488,-4.78369 -2.57509,-2.58369 -5.17904,-4.0617 -8.87699,-5.0395 -1.57649,-0.41685 -4.07466,-0.61793 -6.51483,-0.59272 z m 0.42942,5.0064 c 8.99482,0.0316 14.27948,5.43584 15.22232,15.56752 1.09345,11.74981 -3.53816,19.94284 -12.14136,21.47727 -5.69092,1.01502 -10.84447,-0.40273 -14.40428,-3.96256 -3.8838,-3.88374 -5.73056,-10.20369 -4.98626,-17.06616 0.79621,-7.34113 3.72599,-12.13437 8.90124,-14.5624 2.36488,-1.1095 4.17677,-1.46505 7.40834,-1.45367 z"
           style="fill:#ffffff;fill-opacity:1;stroke-width:0.26458332" />
        <path
           inkscape:connector-curvature="0"
           id="path4704"
           d="m 526.87875,204.90785 c -1.03296,0.007 -1.32707,0.11224 -1.54048,0.4041 -0.25993,0.35549 -0.33539,3.47183 -0.33539,13.90097 0,7.39375 -0.0931,13.44364 -0.20722,13.44364 -0.11414,0 -0.40873,-0.34113 -0.65474,-0.75759 -0.75252,-1.27394 -3.77293,-3.90615 -5.32317,-4.63952 -2.47722,-1.17192 -4.50752,-1.57953 -7.83778,-1.57355 -3.66072,0.007 -5.91108,0.49884 -8.86354,1.93839 -3.94902,1.92548 -6.71156,4.76609 -8.88265,9.13331 -1.9286,3.87934 -2.65051,6.97029 -2.82101,12.07883 -0.15568,4.66487 0.14332,7.39021 1.17096,10.66912 2.41105,7.69281 7.84715,12.50349 15.09213,13.35629 3.86961,0.45551 8.24349,-0.31294 11.52744,-2.02572 1.86198,-0.97113 4.5247,-3.32592 6.07354,-5.37123 l 0.70125,-0.92604 0.0124,3.35431 c 0.0155,4.18602 0.0168,4.18816 3.00808,4.18216 1.19014,-0.002 2.31298,-0.0991 2.49544,-0.21498 0.26458,-0.1674 0.318,-7.04953 0.26458,-33.53178 l -0.0672,-33.32096 -2.50889,-0.077 c -0.53276,-0.0163 -0.95948,-0.025 -1.30379,-0.0227 z m -15.74477,25.68165 c 6.1145,-0.12936 11.48977,3.68258 13.34955,9.70171 0.45697,1.47876 0.51935,2.46883 0.51935,8.21243 0,7.26977 -0.15031,8.28612 -1.72339,11.62151 -1.82459,3.86858 -5.44578,6.67591 -9.78598,7.58714 -8.71794,1.83036 -15.45736,-3.47274 -16.94365,-13.33252 -1.85793,-12.32492 3.435,-22.19632 12.66589,-23.62181 0.64527,-0.0997 1.28569,-0.1551 1.91823,-0.16846 z"
           style="fill:#ffffff;fill-opacity:1;stroke-width:0.26458332" />
        <path
           inkscape:connector-curvature="0"
           id="path4706"
           d="m 562.83933,225.67558 c -1.80173,-6e-5 -3.60391,0.14962 -4.76353,0.45011 -2.83967,0.73578 -6.25292,2.58315 -8.38811,4.53977 -4.58893,4.20518 -7.10171,10.08705 -7.40677,17.33693 -0.34526,8.2052 1.66126,14.78838 5.86991,19.25825 1.0822,1.14938 2.65808,2.47695 3.60804,3.03959 2.02475,1.19917 5.20867,2.24927 7.75872,2.55955 l 0,-5.3e-4 c 5.39012,0.65582 12.65751,-0.82941 16.74884,-3.42304 l 1.65365,-1.04852 0,-2.65256 c 0,-1.58787 -0.10602,-2.65255 -0.26408,-2.65255 -0.14518,0 -0.82979,0.40283 -1.52136,0.89506 -5.03181,3.58156 -12.05732,4.98041 -17.29298,3.44268 -6.07197,-1.78335 -10.0258,-7.28776 -10.48051,-14.59034 l -0.15243,-2.4474 15.99332,0 c 12.08641,0 16.07069,-0.0773 16.31064,-0.31729 0.40259,-0.40267 0.41449,-3.77476 0.0243,-6.95875 -1.11945,-9.13495 -5.65761,-15.09183 -12.93617,-16.98085 -1.1584,-0.30031 -2.95971,-0.45006 -4.76147,-0.45011 z m -0.55239,4.91855 c 0.75189,-0.0112 1.51511,0.0416 2.28459,0.16124 5.11141,0.79465 8.23775,3.88855 9.67589,9.57564 0.29927,1.18345 0.49136,2.68636 0.44546,3.4866 l -0.0806,1.40665 -13.01316,0.0682 c -7.15743,0.0377 -13.0764,-0.0328 -13.15321,-0.15711 -0.21643,-0.35022 0.79793,-4.29863 1.52964,-5.95312 2.34418,-5.30058 7.04813,-8.50979 12.31141,-8.58811 z"
           style="fill:#ffffff;fill-opacity:1;stroke-width:0.26458332" />
        <path
           inkscape:connector-curvature="0"
           id="path4708"
           d="m 167.94792,272.68319 c -0.9379,-0.22786 -2.29415,-1.44111 -2.70195,-2.41708 -0.50903,-1.21832 -0.32449,-3.28379 0.37756,-4.22571 1.78898,-2.40022 5.46737,-2.29457 7.15214,0.20542 0.82176,1.21941 0.82118,3.3001 0,4.53766 -0.99558,1.49812 -3.08859,2.32193 -4.82651,1.89971 z"
           style="fill:#ffffff;fill-opacity:1;stroke-width:0.26458332" />
        <path
           inkscape:connector-curvature="0"
           id="path4710"
           d="m 195.92779,272.48213 c -2.06663,-0.58301 -3.2734,-1.28196 -4.48754,-2.59916 -1.24661,-1.35239 -1.67492,-2.10775 -2.35514,-4.15359 -0.44093,-1.32606 -0.4963,-2.89912 -0.62407,-17.72708 l -0.1402,-16.27188 -3.83646,-0.13229 -3.83646,-0.13229 0,-2.38125 0,-2.38125 3.83646,-0.13229 3.83646,-0.13229 0.0714,-5.46209 c 0.0514,-3.93015 0.1627,-5.53553 0.39688,-5.72389 0.17899,-0.14398 1.38438,-0.58235 2.67864,-0.97417 1.89873,-0.57481 2.39615,-0.64463 2.57564,-0.36155 0.12234,0.19299 0.22426,3.11907 0.22648,6.50243 l 0.004,6.15156 5.52387,0 c 4.42169,0 5.5854,0.0742 5.83239,0.37179 0.19365,0.23331 0.27961,1.14483 0.23085,2.4474 l -0.0777,2.0756 -5.68855,0.13229 -5.68854,0.13229 -0.0683,15.20444 c -0.0597,13.27642 -0.0148,15.39013 0.35428,16.66875 0.91815,3.18138 2.74045,4.38883 6.30454,4.17738 1.36568,-0.081 2.59951,-0.32991 3.40778,-0.68742 1.5357,-0.67926 1.5638,-0.63624 1.45688,2.23047 l -0.0781,2.09267 -1.58388,0.62761 c -2.03703,0.80717 -6.18421,1.02669 -8.27167,0.43781 z"
           style="fill:#ffffff;fill-opacity:1;stroke-width:0.26458332" />
        <path
           inkscape:connector-curvature="0"
           id="path4712"
           d="m 381.67057,272.35354 c -3.54314,-1.6084 -3.00635,-6.94309 0.80179,-7.96853 3.97291,-1.06979 7.04692,3.97703 4.24101,6.96275 -1.4506,1.54357 -3.12322,1.87716 -5.0428,1.00578 z"
           style="fill:#ffffff;fill-opacity:1;stroke-width:0.26458332" />
        <path
           inkscape:connector-curvature="0"
           id="path4714"
           d="m -30.292655,271.86041 c -0.2632,-0.16711 -0.31816,-4.88051 -0.26458,-22.68397 l 0.0676,-22.47305 2.64583,0 2.64584,0 0.0727,4.29948 c 0.04,2.36471 0.16581,4.29948 0.27961,4.29948 0.1138,0 0.61688,-0.85836 1.11792,-1.90746 1.08791,-2.27785 3.61124,-5.08638 5.48724,-6.10741 2.06759,-1.12532 4.3484,-1.60229 6.77302,-1.41636 1.18009,0.0905 2.3599199,0.33779 2.7119799,0.56845 0.58555,0.38368 0.62315,0.56756 0.62315,3.04806 0,1.63724 -0.10364,2.63972 -0.27292,2.63972 -0.15013,0 -1.01333,-0.25072 -1.9182299,-0.55714 -2.19139,-0.74205 -4.76388,-0.60407 -6.89057,0.36957 -3.95211,1.80933 -6.77341,7.08893 -7.58838,14.20046 -0.1424,1.24245 -0.25988,7.51477 -0.26107,13.93848 -0.003,10.40482 -0.0478,11.69705 -0.42069,11.84011 -0.6119,0.23482 -4.41949,0.18854 -4.80851,-0.0584 z"
           style="fill:#ffffff;fill-opacity:1;stroke-width:0.26458332" />
        <path
           inkscape:connector-curvature="0"
           id="path4716"
           d="m 90.708478,271.66366 c -0.37127,-0.37128 -0.41577,-2.75865 -0.41577,-22.30672 0,-17.24531 0.0711,-21.98818 0.33504,-22.34915 0.28456,-0.38915 0.71316,-0.44659 2.84427,-0.38129 l 2.50923,0.0769 0.0743,3.24115 c 0.0537,2.34079 0.16388,3.2377 0.39687,3.22876 0.17743,-0.007 0.7393,-0.61312 1.24862,-1.34734 1.77004,-2.55161 4.889432,-4.75459 7.948802,-5.61361 6.90012,-1.93746 13.73479,0.86416 16.67423,6.83501 0.46728,0.94919 0.93541,1.72582 1.04026,1.72582 0.10488,0 0.61341,-0.68461 1.13012,-1.52135 0.5167,-0.83675 1.7558,-2.30918 2.75354,-3.2721 3.74036,-3.60972 8.7363,-5.07019 14.05506,-4.10869 6.54722,1.18356 10.17273,5.30069 11.30975,12.84337 0.52229,3.46472 0.57137,32.81932 0.0554,33.14693 -0.54351,0.34509 -4.54533,0.25558 -5.03515,-0.11264 -0.39997,-0.3007 -0.44744,-1.77255 -0.52261,-16.20573 -0.074,-14.21609 -0.13131,-16.04089 -0.54803,-17.4625 -1.07714,-3.67474 -2.70237,-5.72243 -5.3621,-6.75592 -1.23502,-0.47988 -2.11783,-0.61201 -4.20867,-0.62984 -2.45547,-0.0209 -2.77532,0.0388 -4.44542,0.82981 -3.14669,1.49045 -5.67082,4.52673 -7.09973,8.54033 -0.60806,1.70794 -0.61283,1.82184 -0.69318,16.53646 -0.0734,13.43982 -0.12176,14.84741 -0.5203,15.14739 -0.4826,0.36325 -4.488,0.45985 -5.02089,0.1211 -0.23874,-0.15176 -0.34079,-4.08871 -0.41315,-15.9371 -0.0862,-14.12068 -0.1443,-15.89849 -0.56576,-17.32306 -1.10945,-3.7501 -3.10851,-6.20951 -5.94119,-7.30935 -2.17588,-0.84482 -5.91773,-0.83405 -8.10871,0.0233 -2.15144,0.8419 -5.007162,3.67435 -6.169062,6.11873 -1.71211,3.60188 -1.71825,3.6681 -1.8312,19.68272 -0.0765,10.84448 -0.18257,14.59754 -0.4168,14.74648 -0.1728,0.10988 -1.28797,0.20161 -2.47811,0.20383 -1.61851,0.003 -2.2687,-0.10075 -2.57969,-0.41172 z"
           style="fill:#ffffff;fill-opacity:1;stroke-width:0.26458332" />
        <path
           inkscape:connector-curvature="0"
           id="path4718"
           d="m 215.32723,271.66366 c -0.37349,-0.37351 -0.41577,-3.7448 -0.41577,-33.15464 0,-25.99804 0.069,-32.83321 0.33504,-33.19706 0.28456,-0.38915 0.71316,-0.44659 2.84427,-0.38129 l 2.50923,0.0769 0.0684,14.35364 c 0.0719,15.07286 0.10348,15.43714 1.18182,13.6117 0.75742,-1.28222 3.22241,-3.66567 4.93755,-4.77422 3.85958,-2.49457 9.37275,-3.26681 14.25112,-1.99615 4.63928,1.20838 7.88312,4.67149 9.31695,9.9467 0.87231,3.20937 1.06765,7.12864 1.06789,21.42537 1.8e-4,12.07768 -0.0483,13.7218 -0.41556,14.08906 -0.30734,0.30732 -0.95729,0.41577 -2.4919,0.41577 -1.14188,0 -2.26446,-0.0723 -2.49465,-0.1606 -0.37441,-0.14367 -0.41867,-1.65642 -0.42007,-14.35365 -0.003,-15.14284 -0.16812,-17.74952 -1.31998,-20.67184 -1.68625,-4.27802 -4.8155,-6.2316 -9.92326,-6.19501 -2.67536,0.019 -4.67341,0.53044 -6.48229,1.65876 -3.65762,2.2815 -6.1882,6.43225 -6.85816,11.24902 -0.17277,1.24222 -0.28559,7.20794 -0.28559,15.10271 0,11.65529 -0.0447,13.06658 -0.41851,13.21001 -0.23019,0.0883 -1.35277,0.1606 -2.49466,0.1606 -1.5346,0 -2.18455,-0.10845 -2.49189,-0.41577 z"
           style="fill:#ffffff;fill-opacity:1;stroke-width:0.26458332" />
        <path
           inkscape:connector-curvature="0"
           id="path4720"
           d="m 265.06889,271.66366 c -0.37126,-0.37128 -0.41576,-2.75865 -0.41576,-22.30672 0,-17.24531 0.0711,-21.98818 0.33504,-22.34915 0.28456,-0.38915 0.71316,-0.44659 2.84426,-0.38129 l 2.50923,0.0769 0.0676,22.47305 c 0.0536,17.80346 -0.003,22.51686 -0.26458,22.68397 -0.18272,0.11599 -1.30601,0.21275 -2.49616,0.21497 -1.6185,0.003 -2.26869,-0.10075 -2.57968,-0.41172 z"
           style="fill:#ffffff;fill-opacity:1;stroke-width:0.26458332" />
        <path
           inkscape:connector-curvature="0"
           id="path4722"
           d="m 285.35525,271.86041 c -0.2632,-0.16711 -0.31816,-4.88051 -0.26458,-22.68397 l 0.0676,-22.47305 2.48984,-0.0766 c 1.53924,-0.0474 2.59987,0.033 2.77812,0.21055 0.16338,0.16277 0.3456,1.78213 0.42059,3.73751 l 0.13229,3.45029 1.45595,-1.8447 c 3.5669,-4.51924 7.63182,-6.47882 13.49301,-6.50457 3.13615,-0.0137 5.01009,0.35613 7.18142,1.41764 3.81008,1.86264 6.05266,4.93594 7.43807,10.19323 0.53192,2.01846 0.56248,2.86433 0.65882,18.2303 0.0821,13.10132 0.036,16.15479 -0.24646,16.33397 -0.55661,0.35295 -4.55422,0.27199 -5.05026,-0.10229 -0.39738,-0.29985 -0.44641,-1.76363 -0.52507,-15.67656 -0.0768,-13.58405 -0.1393,-15.52808 -0.54404,-16.93333 -1.56731,-5.4414 -4.54128,-8.09313 -9.53227,-8.49943 -6.08087,-0.495 -11.21312,3.19612 -13.73997,9.88179 -0.56166,1.48612 -0.58132,1.93324 -0.71565,16.28842 -0.11914,12.73005 -0.19272,14.79486 -0.53501,15.01105 -0.48078,0.30369 -4.49607,0.33586 -4.96245,0.0398 z"
           style="fill:#ffffff;fill-opacity:1;stroke-width:0.26458332" />
        <path
           inkscape:connector-curvature="0"
           id="path4724"
           d="m 335.0974,271.86041 c -0.26366,-0.1674 -0.31795,-7.04964 -0.26459,-33.53189 l 0.0672,-33.32096 2.50923,-0.0769 c 2.13111,-0.0653 2.55971,-0.008 2.84427,0.38129 0.26358,0.36047 0.33504,4.8818 0.33504,21.19947 0,15.67585 0.0753,20.71616 0.30843,20.63846 0.16965,-0.0565 4.60832,-4.68014 9.86374,-10.27465 l 9.5553,-10.17185 3.51864,-0.074 c 2.99048,-0.0629 3.50557,-0.0153 3.43156,0.31652 -0.0479,0.21477 -4.61142,5.05976 -10.14121,10.76667 -5.52979,5.70687 -10.05417,10.58375 -10.05417,10.83746 0,0.25374 4.91853,5.48124 10.93002,11.61672 6.01152,6.13547 10.88337,11.29601 10.82633,11.46789 -0.10941,0.32967 -5.8814,0.59703 -6.98363,0.32348 -0.3152,-0.0782 -5.12603,-4.96451 -10.6907,-10.8584 -5.56469,-5.89388 -10.21813,-10.71615 -10.34095,-10.71615 -0.12284,0 -0.22336,4.69447 -0.22336,10.43215 0,9.13098 -0.0519,10.48398 -0.41576,10.84791 -0.311,0.31097 -0.96118,0.41474 -2.57969,0.41172 -1.19015,-0.003 -2.3132,-0.0989 -2.49568,-0.21468 z"
           style="fill:#ffffff;fill-opacity:1;stroke-width:0.26458332" />
        <path
           inkscape:connector-curvature="0"
           id="path4726"
           d="m 265.51061,214.66599 c -3.41889,-2.08452 -1.97321,-7.40535 2.01294,-7.40879 3.11997,-0.003 4.9733,2.58773 3.88681,5.43261 -0.8777,2.29825 -3.77812,3.26978 -5.89975,1.97618 z"
           style="fill:#ffffff;fill-opacity:1;stroke-width:0.26458332" />
        <path
           inkscape:connector-curvature="0"
           id="path4728"
           d="m -500.13071,168.83719 c -0.0716,-0.18817 -0.0996,-19.91556 -0.0622,-43.8386 l 0.0679,-43.496466 36.77205,-24.16252 c 20.22463,-13.28938 36.86398,-24.0706 36.97632,-23.95826 0.11235,0.11235 0.17414,19.59243 0.13732,43.28907 l -0.0669,43.084796 -36.38021,24.44792 c -20.00911,13.44634 -36.59033,24.56678 -36.84715,24.71206 -0.33619,0.19018 -0.50339,0.16833 -0.5971,-0.078 z"
           style="fill:#ffffff;fill-opacity:1;stroke-width:0.26458332" />
        <path
           inkscape:connector-curvature="0"
           id="path4730"
           d="M 85.794564,-9.2749487 C 74.866455,-9.2908237 66.903839,-8.4114281 58.217954,-6.2306793 38.815614,-1.3593827 23.413271,9.1403951 13.252742,24.422755 5.7313816,35.735571 1.6748905,48.988444 0.57702844,65.836766 -0.66717203,84.930581 3.3018822,103.71576 11.446133,117.28063 c 13.249349,22.06789 35.555695,34.16713 65.881765,35.73478 9.744551,0.50374 21.691041,-0.40177 30.162502,-2.28565 7.51168,-1.67045 12.50148,-3.41503 19.18229,-6.70709 7.61053,-3.75023 13.18752,-7.73432 19.05775,-13.61466 5.5934,-5.603 10.10483,-11.89048 13.48342,-18.79163 6.07971,-12.418408 8.69018,-24.82009 8.71678,-41.413989 0.0132,-8.243623 -0.20482,-11.154463 -1.32602,-17.706419 C 163.87226,36.529003 157.35163,23.712507 146.39913,12.780559 139.03302,5.4282909 131.77299,0.65126538 122.30706,-3.0722158 111.36628,-7.3758754 100.31324,-9.2537291 85.794564,-9.2749487 Z M 85.27315,27.388972 c 1.969349,0.0073 3.886377,0.109749 5.446181,0.316256 7.420758,0.982504 12.755309,3.398864 17.475419,7.915275 5.37345,5.141516 8.6246,12.370726 10.31616,22.940222 0.40542,2.533385 0.48783,4.592796 0.48783,12.303124 0.001,9.71087 -0.11061,11.155786 -1.33687,17.26819 -3.17728,15.837401 -11.32602,24.934971 -24.723556,27.602441 l -5.16e-4,0 c -2.955081,0.58841 -9.655833,0.84799 -12.954764,0.50179 -17.780373,-1.86608 -27.594187,-12.69791 -30.343366,-33.491518 -0.645692,-4.887595 -0.64598,-16.746855 0,-21.141319 0.964589,-6.561984 2.457796,-11.762026 4.596617,-16.010414 4.82478,-9.583552 11.99099,-15.237168 22.165571,-17.486259 2.161165,-0.477732 5.589045,-0.730012 8.871294,-0.717788 z"
           style="fill:#ffffff;fill-opacity:1;stroke-width:0.26458332" />
        <path
           inkscape:connector-curvature="0"
           id="path4732"
           d="m 239.25313,152.6126 c -8.72411,-1.08728 -16.15118,-3.35164 -23.54792,-7.17929 -15.21367,-7.87268 -26.38285,-20.95196 -32.7561,-38.35786 -7.46983,-20.400726 -7.00562,-47.251536 1.17668,-68.062446 7.1687,-18.23297 19.43907,-31.8070701 36.36399,-40.2277801 8.97699,-4.46632 17.99941,-6.88133 28.81751,-7.71345 4.99978,-0.3846 14.75023,-0.17124 19.04999,0.41685 8.00741,1.09517 15.57563,3.17085 22.02656,6.04105 l 1.52136,0.67688 0,10.05314 c 0,5.5292101 -0.0941,10.1112601 -0.20913,10.1823501 -0.11501,0.0711 -0.76896,-0.2192 -1.45317,-0.64508 -8.265,-5.14426 -17.31327,-8.3923701 -26.91269,-9.6610501 -4.40383,-0.58203 -11.77213,-0.57491 -16.27188,0.0156 -21.07591,2.7663301 -37.43584,16.6763001 -44.97308,38.2382501 -2.96129,8.47143 -4.36898,17.2721 -4.37081,27.32574 -0.004,21.81739 7.53486,40.636986 20.46473,51.087366 7.92911,6.4086 15.64195,9.6775 26.10104,11.06228 3.23485,0.42831 12.33106,0.41812 15.74271,-0.0177 10.33456,-1.31993 19.57868,-4.71106 28.02611,-10.2812 1.60001,-1.05503 3.00315,-1.91823 3.11806,-1.91823 0.11491,0 0.20894,4.22431 0.20894,9.38736 l 0,9.38734 -1.38906,0.81092 c -7.54825,4.40661 -17.5995,7.63011 -28.50884,9.14297 -4.33742,0.6015 -18.11766,0.74771 -22.225,0.23582 z"
           style="fill:#ffffff;fill-opacity:1;stroke-width:0.26458332" />
        <path
           inkscape:connector-curvature="0"
           id="path4734"
           d="m 413.87811,152.73393 c -8.48495,-0.44878 -16.13693,-2.34675 -22.65071,-5.61816 -16.56932,-8.32162 -25.67493,-25.74025 -27.35726,-52.333256 -0.19923,-3.14952 -0.26587,-19.73416 -0.21089,-52.4937 l 0.0803,-47.8895901 9.525,0 9.525,0 0.15394,48.4187501 c 0.13631,42.8738 0.2042,48.8273 0.59298,51.98605 1.88553,15.320566 5.64351,24.849006 12.47175,31.622286 5.97119,5.92312 13.15762,8.86782 23.57051,9.65821 8.17737,0.62069 15.76067,-0.79946 22.74207,-4.25899 13.42229,-6.65126 22.14465,-19.83748 25.18582,-38.075256 0.42717,-2.56175 0.46948,-6.51701 0.54338,-50.7804 0.0574,-34.3845601 0.16261,-48.1016501 0.37089,-48.3526001 0.4323,-0.52091 18.54681,-0.51322 18.97943,0.008 0.219,0.2639 0.27985,20.6832501 0.23083,77.4567701 l -0.0666,77.098496 -9.65729,0 -9.65729,0 -0.0686,-13.03073 c -0.0397,-7.52752 -0.16955,-13.03073 -0.30758,-13.03073 -0.13142,0 -0.80386,0.98227 -1.49434,2.18282 -5.65134,9.8262 -12.96136,17.15471 -21.54508,21.59958 -5.16683,2.67551 -9.73187,4.19697 -15.57842,5.1921 -2.1153,0.36004 -9.92111,0.97295 -11.14449,0.87508 -0.21828,-0.0175 -2.12328,-0.12306 -4.23334,-0.23466 z"
           style="fill:#ffffff;fill-opacity:1;stroke-width:0.26458332" />
        <path
           inkscape:connector-curvature="0"
           id="path4736"
           d="m 522.22476,-79.949178 -0.0661,114.634353 -0.0666,114.633825 9.59165,-0.0692 9.59115,-0.0698 0.13229,-12.30313 c 0.0806,-7.49358 0.23008,-12.28992 0.3824,-12.26952 0.13759,0.0185 0.971,1.17702 1.85209,2.5745 8.64232,13.70716 20.09452,21.80516 34.8325,24.63054 1.95085,0.37399 4.7372,0.79044 6.19239,0.92554 3.61135,0.33528 12.30383,0.12573 16.00729,-0.38603 19.529,-2.69856 35.73682,-13.38715 46.23337,-30.49013 6.97484,-11.36473 11.48442,-25.435562 13.16508,-41.076565 0.58939,-5.485156 0.79791,-16.373448 0.42064,-21.960416 -2.04118,-30.226582 -14.34764,-51.9949902 -35.08055,-62.0541044 -7.84897,-3.8081214 -15.39372,-5.5578374 -25.26771,-5.8595683 -12.95421,-0.3958695 -24.09764,2.1746633 -34.1085,7.8677293 -9.58043,5.448247 -16.73452,12.7753264 -23.38617,23.9525434 -0.46535,0.78195 -0.83437,1.153107 -0.99116,0.996315 -0.15462,-0.154622 -0.27538,-19.9628914 -0.31678,-51.96324 l -0.0672,-51.713632 -9.525,0 z m 71.32487,87.5853375 c 7.28342,0.018627 14.42468,1.5127816 20.39151,4.5082615 6.73508,3.381164 11.78904,7.906121 16.23259,14.533483 7.72511,11.521678 11.17864,26.561441 10.42003,45.379137 -1.27619,31.657449 -14.11727,54.280509 -35.03557,61.724409 -2.65269,0.94398 -7.44725,1.95688 -10.81744,2.28512 -10.58161,1.03061 -21.29779,-1.40329 -30.00076,-6.81302 -13.07486,-8.12731 -21.60034,-22.63452 -23.07508,-39.264268 -0.21243,-2.39694 -0.27448,-8.103156 -0.19428,-17.935337 0.10567,-12.958259 0.17343,-14.768406 0.66715,-17.859374 2.05771,-12.882801 6.99481,-23.336568 14.84042,-31.421864 4.09266,-4.21767 7.59204,-6.835695 12.76459,-9.549791 7.11525,-3.7334562 15.55226,-5.6078438 23.80684,-5.5867565 z"
           style="fill:#ffffff;fill-opacity:1;stroke-width:0.26458332" />
        <path
           inkscape:connector-curvature="0"
           id="path4738"
           d="m -226.20602,-67.64346 c -39.67861,-0.0025 -40.41074,0.0069 -40.67969,0.509508 -0.29707,0.555069 -0.40955,215.255342 -0.11316,216.027662 0.14483,0.3774 2.54722,0.41857 24.4729,0.41857 l 24.31275,0 0.0672,-37.24011 0.0667,-37.2401 16.00729,-0.160205 c 17.13191,-0.171609 20.52191,-0.37502 28.575,-1.713574 22.00037,-3.656833 39.97193,-13.85353 51.72348,-29.347054 7.07546,-9.32852 10.98997,-19.200521 12.74651,-32.146874 0.54883,-4.0452412 0.62357,-15.2802961 0.13229,-19.84375 -1.47957,-13.742749 -5.3227,-24.510867 -11.88508,-33.299267 -2.01658,-2.700629 -6.54981,-7.346262 -9.32553,-9.557041 -10.49613,-8.359828 -24.84477,-13.537539 -42.8625,-15.466748 -7.89646,-0.84545 -13.16477,-0.938027 -53.23808,-0.941017 z m 16.55765,37.610626 c 7.45837,0.0012 17.61339,0.19259 19.61481,0.475933 7.53414,1.066588 13.09256,2.943754 17.82476,6.019773 2.36654,1.538341 6.33325,5.714153 7.7401,8.147844 3.32737,5.7559837 4.70855,12.3390815 4.38009,20.8777941 -0.71887,18.6899809 -10.64934,29.1271319 -29.95527,31.4838549 -2.69621,0.329089 -6.11286,0.421164 -15.63265,0.421164 -6.7002,0 -12.26142,-0.07922 -12.35842,-0.176212 -0.097,-0.097 -0.17674,-15.143692 -0.17674,-33.4372479 0,-29.1479551 0.0492,-33.3018341 0.39481,-33.5886421 0.18968,-0.157401 3.69348,-0.225028 8.16851,-0.224261 z"
           style="fill:#ffffff;fill-opacity:1;stroke-width:0.26458332" />
        <path
           inkscape:connector-curvature="0"
           id="path4740"
           d="m -96.855895,149.13626 c -0.097,-0.0969 -0.17639,-34.85896 -0.17639,-77.248906 0,-75.9286701 0.008,-77.0767001 0.51178,-77.3465201 0.61103,-0.32703 46.53193,-0.38291 47.04472,-0.0573 0.2532,0.16082 0.34403,3.40932 0.39687,14.1953 0.0477,9.7342001 0.1555,14.0157401 0.35462,14.0820701 0.15735,0.0524 0.6191,-0.7711 1.02611,-1.83007 3.79566,-9.87594 9.93746,-18.0815701 17.0956,-22.8403101 7.21127,-4.79404 16.97644,-7.08515 26.6584399,-6.25459 3.91770999,0.33607 7.38941,1.13982 7.91654,1.83277 0.25834,0.33956 0.32983,5.10082 0.32668,21.7492701 -0.003,11.723 -0.098,21.46245 -0.21278,21.64319 -0.15663,0.24667 -0.79917,0.0689 -2.57564,-0.71255 -2.8517,-1.25447 -5.95164,-2.17144 -9.51065,-2.81327 -3.6507199,-0.65836 -11.5169399,-0.67855 -14.7031899,-0.0377 -14.14293,2.84442 -23.08992,14.00582 -25.81701,32.20677 -0.41267,2.75416 -0.46492,6.86298 -0.55105,43.325516 l -0.0951,40.28281 -23.75656,0 c -13.06613,0 -23.83597,-0.0794 -23.93297,-0.17639 z"
           style="fill:#ffffff;fill-opacity:1;stroke-width:0.26458332" />
        <path
           inkscape:connector-curvature="0"
           id="path4742"
           d="m 313.19434,148.98193 c -0.0691,-0.1819 -0.0951,-51.765726 -0.0579,-114.630726 l 0.0677,-114.3 9.525,0 9.525,0 0.0664,114.63073 0.0665,114.630726 -9.5336,0 c -7.38357,0 -9.56194,-0.0746 -9.65912,-0.33073 z"
           style="fill:#ffffff;fill-opacity:1;stroke-width:0.26458332" />
        <path
           inkscape:connector-curvature="0"
           id="path4744"
           d="m -415.47201,105.47916 c 0.0879,-4.04979 0.3387,-23.496236 0.55737,-43.214306 0.21867,-19.71807 0.4513,-36.08917 0.51695,-36.38021 0.0816,-0.36182 21.96415,-14.78431 69.18845,-45.60123 37.988,-24.78961 69.31327,-45.13591 69.61172,-45.21393 0.5403,-0.14132 0.54192,-0.11049 0.38264,7.23661 -0.088,4.05821 -0.33906,23.74964 -0.55798,43.75875 -0.21889,20.0091199 -0.45178,36.61834 -0.5175,36.90938 -0.0822,0.36396 -21.69723,14.44784 -69.23412,45.11146 -38.01302,24.52026 -69.33795,44.621556 -69.61095,44.669526 -0.47878,0.0842 -0.49071,-0.17386 -0.33658,-7.27605 z"
           style="fill:#ffffff;fill-opacity:1;stroke-width:0.26458332" />
        <path
           inkscape:connector-curvature="0"
           id="path4746"
           d="m -500.09879,67.334344 c -0.24141,-0.3906 -1.23745,-85.05888 -1.00339,-85.29294 0.7838,-0.7838 140.17549,-93.818464 140.33182,-93.662134 0.10732,0.10733 0.43855,20.964114 0.73607,46.348424 0.43506,37.11932 0.47566,46.21218 0.20741,46.45427 -0.25333,0.22863 -139.09683,85.83436 -139.94911,86.28743 -0.0991,0.0526 -0.24435,-0.008 -0.3228,-0.13505 z"
           style="fill:#ffffff;fill-opacity:1;stroke-width:0.26458332" />
      </g>
      <g
         inkscape:export-ydpi="300.11798"
         inkscape:export-xdpi="300.11798"
         transform="matrix(0.25702518,0,0,0.25702518,70.844519,-99.459062)"
         id="g4806"
         style="fill:#ffffff">
        <path
           style="fill:#ffffff;fill-opacity:1;stroke-width:0.26458332"
           d="m -344.01536,254.74581 c -38.26897,-24.51084 -69.79076,-44.74567 -70.04843,-44.96631 -0.4448,-0.38084 -0.4685,-2.6316 -0.4685,-44.4877 0,-43.01294 0.0121,-44.08342 0.49724,-43.95655 0.27349,0.0715 31.79529,21.12034 70.04844,46.77516 38.25315,25.65482 69.72978,46.64522 69.94807,46.64532 0.21828,1.1e-4 32.46786,-21.4662 71.66575,-47.70292 39.19787,-26.23669 71.50301,-47.76433 71.78921,-47.83918 0.51099,-0.13361 0.51748,-0.004 0.36037,7.24247 -0.088,4.0582 -0.33907,23.74963 -0.55798,43.75875 -0.21889,20.00911 -0.45136,36.61833 -0.51658,36.90937 -0.0818,0.3647 -22.23177,14.77502 -71.27242,46.36823 -39.1346,25.21149 -71.31389,45.83446 -71.50952,45.8288 -0.19564,-0.006 -31.66669,-20.06457 -69.93565,-44.57544 z"
           id="path4750"
           inkscape:connector-curvature="0" />
        <path
           style="fill:#ffffff;fill-opacity:1;stroke-width:0.26458332"
           d="m -48.864912,204.9187 c -0.968494,0.0115 -1.580378,0.0947 -1.759585,0.24339 -0.308428,0.25598 -0.37052,2.57537 -0.37052,13.90097 0,7.47651 -0.10268,13.5935 -0.22841,13.5935 -0.12573,0 -0.564877,-0.48551 -0.976167,-1.07903 -1.74064,-2.51177 -4.725175,-4.51853 -8.077025,-5.43118 -2.44398,-0.66545 -7.379734,-0.61132 -10.070703,0.1106 -8.702072,2.33444 -14.208614,9.81911 -15.316896,20.8194 -0.607829,6.03308 0.556139,12.40882 3.108339,17.03046 1.164979,2.1096 4.065516,5.18287 5.981546,6.33762 1.949029,1.17461 4.764469,2.12645 7.116879,2.40554 l 0,-5.3e-4 c 6.838979,0.81134 13.7171,-1.89484 17.06304,-6.71381 0.551611,-0.79446 1.091821,-1.4487 1.200959,-1.45468 0.109141,-0.006 0.198438,1.53382 0.198438,3.42046 0,3.12063 0.04653,3.45501 0.512114,3.70417 0.59844,0.3203 4.493496,0.36356 4.979024,0.0553 0.264592,-0.1674 0.317985,-7.05008 0.264584,-33.53231 l -0.06718,-33.32096 -2.47375,-0.0765 c -0.399188,-0.0123 -0.761855,-0.0162 -1.084686,-0.0124 z m -15.357721,25.74676 c 1.41201,0.0189 2.760681,0.18428 3.702616,0.50176 1.60596,0.54128 3.365508,1.48312 4.721677,2.52751 1.33345,1.0269 3.374501,4.07268 4.061251,6.06009 0.58038,1.67929 0.610063,2.12043 0.603062,9.04132 -0.0071,7.17576 -0.01716,7.30234 -0.700214,9.18961 -0.96692,2.67171 -1.908257,4.1801 -3.771347,6.04356 -1.872009,1.87238 -4.192643,3.11074 -6.898804,3.68141 -7.863409,1.65828 -14.381022,-2.62876 -16.567462,-10.89752 -0.776941,-2.93833 -0.96498,-8.65341 -0.392742,-11.93517 1.21897,-6.99066 4.74336,-11.6736 10.213329,-13.57024 1.293212,-0.44842 3.213195,-0.66664 5.028634,-0.64233 z"
           id="path4752"
           inkscape:connector-curvature="0" />
        <path
           style="fill:#ffffff;fill-opacity:1;stroke-width:0.26458332"
           d="m 16.210183,225.67558 c -1.801743,-6e-5 -3.603918,0.15015 -4.763534,0.45061 -6.7376386,1.74583 -12.01151988,6.87557 -14.4663002,14.07099 -2.4541586,7.19352 -1.654085,17.21215 1.878957,23.52982 1.30457841,2.33283 4.1474972,5.31109 6.2750673,6.57376 2.0209907,1.19943 5.2060289,2.24986 7.7540489,2.55746 l 0,-5e-4 c 5.482039,0.66183 12.745664,-0.85799 16.947803,-3.54605 l 1.454692,-0.9307 0,-2.64893 c 0,-1.5856 -0.106058,-2.64893 -0.264067,-2.64893 -0.14518,0 -0.829794,0.4023 -1.521354,0.89453 -3.916871,2.78799 -9.431618,4.39113 -13.853417,4.02714 -3.878202,-0.31922 -6.9779302,-1.66716 -9.3973595,-4.08659 -2.6164117,-2.61641 -4.5971354,-7.75944 -4.5971354,-11.93673 l 0,-1.59835 15.9540649,0 c 12.05619,0 16.031954,-0.0779 16.271875,-0.31782 0.40258,-0.40267 0.414496,-3.77423 0.02429,-6.95822 -1.119449,-9.13495 -5.657612,-15.09183 -12.936161,-16.98088 -1.15841,-0.30028 -2.959722,-0.45056 -4.761466,-0.45061 z m -0.106971,4.92321 c 3.156188,0.028 6.105104,1.15244 8.112167,3.15949 2.219251,2.21925 4.047871,7.0458 3.85041,10.1632 l -0.08268,1.30278 -13.013158,0.0687 c -7.1574502,0.0377 -13.0710993,-0.0241 -13.1408011,-0.13695 -0.1991995,-0.32229 0.2819135,-2.54611 0.993222,-4.59145 1.9039099,-5.47473 5.9067964,-9.02046 11.0716751,-9.80715 0.741412,-0.11292 1.480817,-0.1651 2.209167,-0.15864 z"
           id="path4754"
           inkscape:connector-curvature="0" />
        <path
           style="fill:#ffffff;fill-opacity:1;stroke-width:0.26458332"
           d="m 62.03736,225.61306 c -4.930444,-0.0441 -11.481583,1.63459 -14.59394,3.88916 l -1.071772,0.77618 0,2.76056 c 0,1.51844 0.102518,2.824 0.227378,2.9011 0.12483,0.0772 0.868966,-0.34277 1.653646,-0.93326 1.977548,-1.48823 5.122431,-3.03271 7.56853,-3.71711 2.97828,-0.83296 7.293187,-0.83068 9.399426,0.006 3.442944,1.36713 5.372539,4.65849 5.906098,10.0733 0.175422,1.7803 0.158202,1.86232 -0.445966,2.10891 -0.34571,0.14108 -4.075779,0.74443 -8.288901,1.34101 -10.539198,1.49233 -13.577043,2.56445 -16.736962,5.90558 -1.443191,1.52596 -2.103501,2.66169 -2.877859,4.95113 -0.719241,2.1265 -0.65341,6.69546 0.12764,8.86354 1.73051,4.80351 5.549051,7.62936 11.272179,8.3421 6.032391,0.75128 11.831706,-1.67251 15.26677,-6.38048 0.734319,-1.00642 1.439159,-1.82986 1.566828,-1.82986 0.12763,0 0.232026,1.59504 0.232026,3.54396 0,2.9872 0.06578,3.56878 0.418582,3.70417 0.23019,0.0883 1.353047,0.1602 2.494936,0.1602 1.573821,0 2.181098,-0.10522 2.510959,-0.4351 0.396888,-0.39691 0.4254,-1.86714 0.320911,-16.7349 -0.126892,-18.05699 -0.138833,-18.19214 -1.893941,-21.90512 -2.035971,-4.30715 -5.43951,-6.54262 -11.057723,-7.26313 -0.623459,-0.08 -1.294495,-0.12136 -1.998845,-0.12763 z m 8.62738,23.00996 c 0.110887,-2.9e-4 0.184729,0.005 0.217559,0.0181 0.38336,0.14711 0.416274,0.58867 0.281635,3.79873 -0.0838,1.99771 -0.334385,4.28191 -0.556556,5.07566 -1.325509,4.73591 -4.55681,8.34795 -8.77879,9.81337 -1.970752,0.68403 -5.357043,0.8872 -7.122565,0.42736 -4.295558,-1.11887 -6.482291,-3.94449 -6.482291,-8.37674 0,-4.93511 2.274072,-7.39508 8.069791,-8.72918 2.77699,-0.63924 12.707924,-2.02293 14.371217,-2.02727 z"
           id="path4756"
           inkscape:connector-curvature="0" />
        <path
           style="fill:#ffffff;fill-opacity:1;stroke-width:0.26458332"
           d="m 415.23482,272.85212 c -4.45352,-0.57727 -8.70826,-2.76238 -11.72649,-6.02247 -5.40097,-5.83369 -7.30475,-15.1869 -4.94996,-24.31889 0.70517,-2.73468 2.80125,-6.95738 4.46135,-8.98771 2.53669,-3.10242 6.43879,-5.70531 10.34706,-6.902 5.11315,-1.56562 12.04206,-1.26365 16.52696,0.72022 l 1.18229,0.52298 0,2.79302 c 0,2.12333 -0.0829,2.79299 -0.34589,2.79299 -0.19026,0 -1.1543,-0.40671 -2.1423,-0.90381 -2.68473,-1.35078 -5.07381,-1.87428 -8.49202,-1.86087 -4.76752,0.0188 -7.9149,1.28775 -11.11885,4.4831 -3.37314,3.3641 -5.09114,7.6395 -5.34421,13.2996 -0.44069,9.85568 3.61299,16.75413 11.1714,19.01118 1.94722,0.58148 6.73346,0.65805 8.86354,0.14179 0.80036,-0.19396 2.67126,-0.9371 4.15758,-1.65142 1.4863,-0.71429 2.76622,-1.29873 2.84427,-1.29873 0.078,0 0.1419,1.1889 0.1419,2.64202 l 0,2.64202 -1.57449,0.79481 c -3.72173,1.8787 -9.2838,2.71375 -14.00214,2.10217 z"
           id="path4758"
           inkscape:connector-curvature="0" />
        <path
           style="fill:#ffffff;fill-opacity:1;stroke-width:0.26458332"
           d="m 460.41201,225.68023 c -1.89791,0.0196 -3.7609,0.17611 -5.12683,0.47387 -6.72561,1.46619 -11.87845,5.61425 -14.60995,11.76052 -2.47473,5.56845 -2.886,14.35404 -0.95964,20.50262 2.59942,8.29683 8.92698,13.46935 17.68625,14.45752 1.01868,0.11491 2.86414,0.14949 4.10105,0.0765 6.02445,-0.35552 10.2028,-2.11201 14.0317,-5.89886 4.08852,-4.04365 6.18765,-9.24621 6.52158,-16.16337 0.27911,-5.78141 -0.56925,-10.33068 -2.75746,-14.79288 -1.0204,-2.08082 -1.62206,-2.90465 -3.49488,-4.78369 -2.57509,-2.58369 -5.17904,-4.0617 -8.87699,-5.0395 -1.57649,-0.41685 -4.07466,-0.61793 -6.51483,-0.59272 z m 0.42942,5.0064 c 8.99482,0.0316 14.27948,5.43584 15.22232,15.56752 1.09345,11.74981 -3.53816,19.94284 -12.14136,21.47727 -5.69092,1.01502 -10.84447,-0.40273 -14.40428,-3.96256 -3.8838,-3.88374 -5.73056,-10.20369 -4.98626,-17.06616 0.79621,-7.34113 3.72599,-12.13437 8.90124,-14.5624 2.36488,-1.1095 4.17677,-1.46505 7.40834,-1.45367 z"
           id="path4760"
           inkscape:connector-curvature="0" />
        <path
           style="fill:#ffffff;fill-opacity:1;stroke-width:0.26458332"
           d="m 526.87875,204.90785 c -1.03296,0.007 -1.32707,0.11224 -1.54048,0.4041 -0.25993,0.35549 -0.33539,3.47183 -0.33539,13.90097 0,7.39375 -0.0931,13.44364 -0.20722,13.44364 -0.11414,0 -0.40873,-0.34113 -0.65474,-0.75759 -0.75252,-1.27394 -3.77293,-3.90615 -5.32317,-4.63952 -2.47722,-1.17192 -4.50752,-1.57953 -7.83778,-1.57355 -3.66072,0.007 -5.91108,0.49884 -8.86354,1.93839 -3.94902,1.92548 -6.71156,4.76609 -8.88265,9.13331 -1.9286,3.87934 -2.65051,6.97029 -2.82101,12.07883 -0.15568,4.66487 0.14332,7.39021 1.17096,10.66912 2.41105,7.69281 7.84715,12.50349 15.09213,13.35629 3.86961,0.45551 8.24349,-0.31294 11.52744,-2.02572 1.86198,-0.97113 4.5247,-3.32592 6.07354,-5.37123 l 0.70125,-0.92604 0.0124,3.35431 c 0.0155,4.18602 0.0168,4.18816 3.00808,4.18216 1.19014,-0.002 2.31298,-0.0991 2.49544,-0.21498 0.26458,-0.1674 0.318,-7.04953 0.26458,-33.53178 l -0.0672,-33.32096 -2.50889,-0.077 c -0.53276,-0.0163 -0.95948,-0.025 -1.30379,-0.0227 z m -15.74477,25.68165 c 6.1145,-0.12936 11.48977,3.68258 13.34955,9.70171 0.45697,1.47876 0.51935,2.46883 0.51935,8.21243 0,7.26977 -0.15031,8.28612 -1.72339,11.62151 -1.82459,3.86858 -5.44578,6.67591 -9.78598,7.58714 -8.71794,1.83036 -15.45736,-3.47274 -16.94365,-13.33252 -1.85793,-12.32492 3.435,-22.19632 12.66589,-23.62181 0.64527,-0.0997 1.28569,-0.1551 1.91823,-0.16846 z"
           id="path4762"
           inkscape:connector-curvature="0" />
        <path
           style="fill:#ffffff;fill-opacity:1;stroke-width:0.26458332"
           d="m 562.83933,225.67558 c -1.80173,-6e-5 -3.60391,0.14962 -4.76353,0.45011 -2.83967,0.73578 -6.25292,2.58315 -8.38811,4.53977 -4.58893,4.20518 -7.10171,10.08705 -7.40677,17.33693 -0.34526,8.2052 1.66126,14.78838 5.86991,19.25825 1.0822,1.14938 2.65808,2.47695 3.60804,3.03959 2.02475,1.19917 5.20867,2.24927 7.75872,2.55955 l 0,-5.3e-4 c 5.39012,0.65582 12.65751,-0.82941 16.74884,-3.42304 l 1.65365,-1.04852 0,-2.65256 c 0,-1.58787 -0.10602,-2.65255 -0.26408,-2.65255 -0.14518,0 -0.82979,0.40283 -1.52136,0.89506 -5.03181,3.58156 -12.05732,4.98041 -17.29298,3.44268 -6.07197,-1.78335 -10.0258,-7.28776 -10.48051,-14.59034 l -0.15243,-2.4474 15.99332,0 c 12.08641,0 16.07069,-0.0773 16.31064,-0.31729 0.40259,-0.40267 0.41449,-3.77476 0.0243,-6.95875 -1.11945,-9.13495 -5.65761,-15.09183 -12.93617,-16.98085 -1.1584,-0.30031 -2.95971,-0.45006 -4.76147,-0.45011 z m -0.55239,4.91855 c 0.75189,-0.0112 1.51511,0.0416 2.28459,0.16124 5.11141,0.79465 8.23775,3.88855 9.67589,9.57564 0.29927,1.18345 0.49136,2.68636 0.44546,3.4866 l -0.0806,1.40665 -13.01316,0.0682 c -7.15743,0.0377 -13.0764,-0.0328 -13.15321,-0.15711 -0.21643,-0.35022 0.79793,-4.29863 1.52964,-5.95312 2.34418,-5.30058 7.04813,-8.50979 12.31141,-8.58811 z"
           id="path4764"
           inkscape:connector-curvature="0" />
        <path
           style="fill:#ffffff;fill-opacity:1;stroke-width:0.26458332"
           d="m 167.94792,272.68319 c -0.9379,-0.22786 -2.29415,-1.44111 -2.70195,-2.41708 -0.50903,-1.21832 -0.32449,-3.28379 0.37756,-4.22571 1.78898,-2.40022 5.46737,-2.29457 7.15214,0.20542 0.82176,1.21941 0.82118,3.3001 0,4.53766 -0.99558,1.49812 -3.08859,2.32193 -4.82651,1.89971 z"
           id="path4766"
           inkscape:connector-curvature="0" />
        <path
           style="fill:#ffffff;fill-opacity:1;stroke-width:0.26458332"
           d="m 195.92779,272.48213 c -2.06663,-0.58301 -3.2734,-1.28196 -4.48754,-2.59916 -1.24661,-1.35239 -1.67492,-2.10775 -2.35514,-4.15359 -0.44093,-1.32606 -0.4963,-2.89912 -0.62407,-17.72708 l -0.1402,-16.27188 -3.83646,-0.13229 -3.83646,-0.13229 0,-2.38125 0,-2.38125 3.83646,-0.13229 3.83646,-0.13229 0.0714,-5.46209 c 0.0514,-3.93015 0.1627,-5.53553 0.39688,-5.72389 0.17899,-0.14398 1.38438,-0.58235 2.67864,-0.97417 1.89873,-0.57481 2.39615,-0.64463 2.57564,-0.36155 0.12234,0.19299 0.22426,3.11907 0.22648,6.50243 l 0.004,6.15156 5.52387,0 c 4.42169,0 5.5854,0.0742 5.83239,0.37179 0.19365,0.23331 0.27961,1.14483 0.23085,2.4474 l -0.0777,2.0756 -5.68855,0.13229 -5.68854,0.13229 -0.0683,15.20444 c -0.0597,13.27642 -0.0148,15.39013 0.35428,16.66875 0.91815,3.18138 2.74045,4.38883 6.30454,4.17738 1.36568,-0.081 2.59951,-0.32991 3.40778,-0.68742 1.5357,-0.67926 1.5638,-0.63624 1.45688,2.23047 l -0.0781,2.09267 -1.58388,0.62761 c -2.03703,0.80717 -6.18421,1.02669 -8.27167,0.43781 z"
           id="path4768"
           inkscape:connector-curvature="0" />
        <path
           style="fill:#ffffff;fill-opacity:1;stroke-width:0.26458332"
           d="m 381.67057,272.35354 c -3.54314,-1.6084 -3.00635,-6.94309 0.80179,-7.96853 3.97291,-1.06979 7.04692,3.97703 4.24101,6.96275 -1.4506,1.54357 -3.12322,1.87716 -5.0428,1.00578 z"
           id="path4770"
           inkscape:connector-curvature="0" />
        <path
           style="fill:#ffffff;fill-opacity:1;stroke-width:0.26458332"
           d="m -30.292655,271.86041 c -0.2632,-0.16711 -0.31816,-4.88051 -0.26458,-22.68397 l 0.0676,-22.47305 2.64583,0 2.64584,0 0.0727,4.29948 c 0.04,2.36471 0.16581,4.29948 0.27961,4.29948 0.1138,0 0.61688,-0.85836 1.11792,-1.90746 1.08791,-2.27785 3.61124,-5.08638 5.48724,-6.10741 2.06759,-1.12532 4.3484,-1.60229 6.77302,-1.41636 1.18009,0.0905 2.3599199,0.33779 2.7119799,0.56845 0.58555,0.38368 0.62315,0.56756 0.62315,3.04806 0,1.63724 -0.10364,2.63972 -0.27292,2.63972 -0.15013,0 -1.01333,-0.25072 -1.9182299,-0.55714 -2.19139,-0.74205 -4.76388,-0.60407 -6.89057,0.36957 -3.95211,1.80933 -6.77341,7.08893 -7.58838,14.20046 -0.1424,1.24245 -0.25988,7.51477 -0.26107,13.93848 -0.003,10.40482 -0.0478,11.69705 -0.42069,11.84011 -0.6119,0.23482 -4.41949,0.18854 -4.80851,-0.0584 z"
           id="path4772"
           inkscape:connector-curvature="0" />
        <path
           style="fill:#ffffff;fill-opacity:1;stroke-width:0.26458332"
           d="m 90.708478,271.66366 c -0.37127,-0.37128 -0.41577,-2.75865 -0.41577,-22.30672 0,-17.24531 0.0711,-21.98818 0.33504,-22.34915 0.28456,-0.38915 0.71316,-0.44659 2.84427,-0.38129 l 2.50923,0.0769 0.0743,3.24115 c 0.0537,2.34079 0.16388,3.2377 0.39687,3.22876 0.17743,-0.007 0.7393,-0.61312 1.24862,-1.34734 1.77004,-2.55161 4.889432,-4.75459 7.948802,-5.61361 6.90012,-1.93746 13.73479,0.86416 16.67423,6.83501 0.46728,0.94919 0.93541,1.72582 1.04026,1.72582 0.10488,0 0.61341,-0.68461 1.13012,-1.52135 0.5167,-0.83675 1.7558,-2.30918 2.75354,-3.2721 3.74036,-3.60972 8.7363,-5.07019 14.05506,-4.10869 6.54722,1.18356 10.17273,5.30069 11.30975,12.84337 0.52229,3.46472 0.57137,32.81932 0.0554,33.14693 -0.54351,0.34509 -4.54533,0.25558 -5.03515,-0.11264 -0.39997,-0.3007 -0.44744,-1.77255 -0.52261,-16.20573 -0.074,-14.21609 -0.13131,-16.04089 -0.54803,-17.4625 -1.07714,-3.67474 -2.70237,-5.72243 -5.3621,-6.75592 -1.23502,-0.47988 -2.11783,-0.61201 -4.20867,-0.62984 -2.45547,-0.0209 -2.77532,0.0388 -4.44542,0.82981 -3.14669,1.49045 -5.67082,4.52673 -7.09973,8.54033 -0.60806,1.70794 -0.61283,1.82184 -0.69318,16.53646 -0.0734,13.43982 -0.12176,14.84741 -0.5203,15.14739 -0.4826,0.36325 -4.488,0.45985 -5.02089,0.1211 -0.23874,-0.15176 -0.34079,-4.08871 -0.41315,-15.9371 -0.0862,-14.12068 -0.1443,-15.89849 -0.56576,-17.32306 -1.10945,-3.7501 -3.10851,-6.20951 -5.94119,-7.30935 -2.17588,-0.84482 -5.91773,-0.83405 -8.10871,0.0233 -2.15144,0.8419 -5.007162,3.67435 -6.169062,6.11873 -1.71211,3.60188 -1.71825,3.6681 -1.8312,19.68272 -0.0765,10.84448 -0.18257,14.59754 -0.4168,14.74648 -0.1728,0.10988 -1.28797,0.20161 -2.47811,0.20383 -1.61851,0.003 -2.2687,-0.10075 -2.57969,-0.41172 z"
           id="path4774"
           inkscape:connector-curvature="0" />
        <path
           style="fill:#ffffff;fill-opacity:1;stroke-width:0.26458332"
           d="m 215.32723,271.66366 c -0.37349,-0.37351 -0.41577,-3.7448 -0.41577,-33.15464 0,-25.99804 0.069,-32.83321 0.33504,-33.19706 0.28456,-0.38915 0.71316,-0.44659 2.84427,-0.38129 l 2.50923,0.0769 0.0684,14.35364 c 0.0719,15.07286 0.10348,15.43714 1.18182,13.6117 0.75742,-1.28222 3.22241,-3.66567 4.93755,-4.77422 3.85958,-2.49457 9.37275,-3.26681 14.25112,-1.99615 4.63928,1.20838 7.88312,4.67149 9.31695,9.9467 0.87231,3.20937 1.06765,7.12864 1.06789,21.42537 1.8e-4,12.07768 -0.0483,13.7218 -0.41556,14.08906 -0.30734,0.30732 -0.95729,0.41577 -2.4919,0.41577 -1.14188,0 -2.26446,-0.0723 -2.49465,-0.1606 -0.37441,-0.14367 -0.41867,-1.65642 -0.42007,-14.35365 -0.003,-15.14284 -0.16812,-17.74952 -1.31998,-20.67184 -1.68625,-4.27802 -4.8155,-6.2316 -9.92326,-6.19501 -2.67536,0.019 -4.67341,0.53044 -6.48229,1.65876 -3.65762,2.2815 -6.1882,6.43225 -6.85816,11.24902 -0.17277,1.24222 -0.28559,7.20794 -0.28559,15.10271 0,11.65529 -0.0447,13.06658 -0.41851,13.21001 -0.23019,0.0883 -1.35277,0.1606 -2.49466,0.1606 -1.5346,0 -2.18455,-0.10845 -2.49189,-0.41577 z"
           id="path4776"
           inkscape:connector-curvature="0" />
        <path
           style="fill:#ffffff;fill-opacity:1;stroke-width:0.26458332"
           d="m 265.06889,271.66366 c -0.37126,-0.37128 -0.41576,-2.75865 -0.41576,-22.30672 0,-17.24531 0.0711,-21.98818 0.33504,-22.34915 0.28456,-0.38915 0.71316,-0.44659 2.84426,-0.38129 l 2.50923,0.0769 0.0676,22.47305 c 0.0536,17.80346 -0.003,22.51686 -0.26458,22.68397 -0.18272,0.11599 -1.30601,0.21275 -2.49616,0.21497 -1.6185,0.003 -2.26869,-0.10075 -2.57968,-0.41172 z"
           id="path4778"
           inkscape:connector-curvature="0" />
        <path
           style="fill:#ffffff;fill-opacity:1;stroke-width:0.26458332"
           d="m 285.35525,271.86041 c -0.2632,-0.16711 -0.31816,-4.88051 -0.26458,-22.68397 l 0.0676,-22.47305 2.48984,-0.0766 c 1.53924,-0.0474 2.59987,0.033 2.77812,0.21055 0.16338,0.16277 0.3456,1.78213 0.42059,3.73751 l 0.13229,3.45029 1.45595,-1.8447 c 3.5669,-4.51924 7.63182,-6.47882 13.49301,-6.50457 3.13615,-0.0137 5.01009,0.35613 7.18142,1.41764 3.81008,1.86264 6.05266,4.93594 7.43807,10.19323 0.53192,2.01846 0.56248,2.86433 0.65882,18.2303 0.0821,13.10132 0.036,16.15479 -0.24646,16.33397 -0.55661,0.35295 -4.55422,0.27199 -5.05026,-0.10229 -0.39738,-0.29985 -0.44641,-1.76363 -0.52507,-15.67656 -0.0768,-13.58405 -0.1393,-15.52808 -0.54404,-16.93333 -1.56731,-5.4414 -4.54128,-8.09313 -9.53227,-8.49943 -6.08087,-0.495 -11.21312,3.19612 -13.73997,9.88179 -0.56166,1.48612 -0.58132,1.93324 -0.71565,16.28842 -0.11914,12.73005 -0.19272,14.79486 -0.53501,15.01105 -0.48078,0.30369 -4.49607,0.33586 -4.96245,0.0398 z"
           id="path4780"
           inkscape:connector-curvature="0" />
        <path
           style="fill:#ffffff;fill-opacity:1;stroke-width:0.26458332"
           d="m 335.0974,271.86041 c -0.26366,-0.1674 -0.31795,-7.04964 -0.26459,-33.53189 l 0.0672,-33.32096 2.50923,-0.0769 c 2.13111,-0.0653 2.55971,-0.008 2.84427,0.38129 0.26358,0.36047 0.33504,4.8818 0.33504,21.19947 0,15.67585 0.0753,20.71616 0.30843,20.63846 0.16965,-0.0565 4.60832,-4.68014 9.86374,-10.27465 l 9.5553,-10.17185 3.51864,-0.074 c 2.99048,-0.0629 3.50557,-0.0153 3.43156,0.31652 -0.0479,0.21477 -4.61142,5.05976 -10.14121,10.76667 -5.52979,5.70687 -10.05417,10.58375 -10.05417,10.83746 0,0.25374 4.91853,5.48124 10.93002,11.61672 6.01152,6.13547 10.88337,11.29601 10.82633,11.46789 -0.10941,0.32967 -5.8814,0.59703 -6.98363,0.32348 -0.3152,-0.0782 -5.12603,-4.96451 -10.6907,-10.8584 -5.56469,-5.89388 -10.21813,-10.71615 -10.34095,-10.71615 -0.12284,0 -0.22336,4.69447 -0.22336,10.43215 0,9.13098 -0.0519,10.48398 -0.41576,10.84791 -0.311,0.31097 -0.96118,0.41474 -2.57969,0.41172 -1.19015,-0.003 -2.3132,-0.0989 -2.49568,-0.21468 z"
           id="path4782"
           inkscape:connector-curvature="0" />
        <path
           style="fill:#ffffff;fill-opacity:1;stroke-width:0.26458332"
           d="m 265.51061,214.66599 c -3.41889,-2.08452 -1.97321,-7.40535 2.01294,-7.40879 3.11997,-0.003 4.9733,2.58773 3.88681,5.43261 -0.8777,2.29825 -3.77812,3.26978 -5.89975,1.97618 z"
           id="path4784"
           inkscape:connector-curvature="0" />
        <path
           style="fill:#ffffff;fill-opacity:1;stroke-width:0.26458332"
           d="m -500.13071,168.83719 c -0.0716,-0.18817 -0.0996,-19.91556 -0.0622,-43.8386 l 0.0679,-43.496466 36.77205,-24.16252 c 20.22463,-13.28938 36.86398,-24.0706 36.97632,-23.95826 0.11235,0.11235 0.17414,19.59243 0.13732,43.28907 l -0.0669,43.084796 -36.38021,24.44792 c -20.00911,13.44634 -36.59033,24.56678 -36.84715,24.71206 -0.33619,0.19018 -0.50339,0.16833 -0.5971,-0.078 z"
           id="path4786"
           inkscape:connector-curvature="0" />
        <path
           style="fill:#ffffff;fill-opacity:1;stroke-width:0.26458332"
           d="M 85.794564,-9.2749487 C 74.866455,-9.2908237 66.903839,-8.4114281 58.217954,-6.2306793 38.815614,-1.3593827 23.413271,9.1403951 13.252742,24.422755 5.7313816,35.735571 1.6748905,48.988444 0.57702844,65.836766 -0.66717203,84.930581 3.3018822,103.71576 11.446133,117.28063 c 13.249349,22.06789 35.555695,34.16713 65.881765,35.73478 9.744551,0.50374 21.691041,-0.40177 30.162502,-2.28565 7.51168,-1.67045 12.50148,-3.41503 19.18229,-6.70709 7.61053,-3.75023 13.18752,-7.73432 19.05775,-13.61466 5.5934,-5.603 10.10483,-11.89048 13.48342,-18.79163 6.07971,-12.418408 8.69018,-24.82009 8.71678,-41.413989 0.0132,-8.243623 -0.20482,-11.154463 -1.32602,-17.706419 C 163.87226,36.529003 157.35163,23.712507 146.39913,12.780559 139.03302,5.4282909 131.77299,0.65126538 122.30706,-3.0722158 111.36628,-7.3758754 100.31324,-9.2537291 85.794564,-9.2749487 Z M 85.27315,27.388972 c 1.969349,0.0073 3.886377,0.109749 5.446181,0.316256 7.420758,0.982504 12.755309,3.398864 17.475419,7.915275 5.37345,5.141516 8.6246,12.370726 10.31616,22.940222 0.40542,2.533385 0.48783,4.592796 0.48783,12.303124 0.001,9.71087 -0.11061,11.155786 -1.33687,17.26819 -3.17728,15.837401 -11.32602,24.934971 -24.723556,27.602441 l -5.16e-4,0 c -2.955081,0.58841 -9.655833,0.84799 -12.954764,0.50179 -17.780373,-1.86608 -27.594187,-12.69791 -30.343366,-33.491518 -0.645692,-4.887595 -0.64598,-16.746855 0,-21.141319 0.964589,-6.561984 2.457796,-11.762026 4.596617,-16.010414 4.82478,-9.583552 11.99099,-15.237168 22.165571,-17.486259 2.161165,-0.477732 5.589045,-0.730012 8.871294,-0.717788 z"
           id="path4788"
           inkscape:connector-curvature="0" />
        <path
           style="fill:#ffffff;fill-opacity:1;stroke-width:0.26458332"
           d="m 239.25313,152.6126 c -8.72411,-1.08728 -16.15118,-3.35164 -23.54792,-7.17929 -15.21367,-7.87268 -26.38285,-20.95196 -32.7561,-38.35786 -7.46983,-20.400726 -7.00562,-47.251536 1.17668,-68.062446 7.1687,-18.23297 19.43907,-31.8070701 36.36399,-40.2277801 8.97699,-4.46632 17.99941,-6.88133 28.81751,-7.71345 4.99978,-0.3846 14.75023,-0.17124 19.04999,0.41685 8.00741,1.09517 15.57563,3.17085 22.02656,6.04105 l 1.52136,0.67688 0,10.05314 c 0,5.5292101 -0.0941,10.1112601 -0.20913,10.1823501 -0.11501,0.0711 -0.76896,-0.2192 -1.45317,-0.64508 -8.265,-5.14426 -17.31327,-8.3923701 -26.91269,-9.6610501 -4.40383,-0.58203 -11.77213,-0.57491 -16.27188,0.0156 -21.07591,2.7663301 -37.43584,16.6763001 -44.97308,38.2382501 -2.96129,8.47143 -4.36898,17.2721 -4.37081,27.32574 -0.004,21.81739 7.53486,40.636986 20.46473,51.087366 7.92911,6.4086 15.64195,9.6775 26.10104,11.06228 3.23485,0.42831 12.33106,0.41812 15.74271,-0.0177 10.33456,-1.31993 19.57868,-4.71106 28.02611,-10.2812 1.60001,-1.05503 3.00315,-1.91823 3.11806,-1.91823 0.11491,0 0.20894,4.22431 0.20894,9.38736 l 0,9.38734 -1.38906,0.81092 c -7.54825,4.40661 -17.5995,7.63011 -28.50884,9.14297 -4.33742,0.6015 -18.11766,0.74771 -22.225,0.23582 z"
           id="path4790"
           inkscape:connector-curvature="0" />
        <path
           style="fill:#ffffff;fill-opacity:1;stroke-width:0.26458332"
           d="m 413.87811,152.73393 c -8.48495,-0.44878 -16.13693,-2.34675 -22.65071,-5.61816 -16.56932,-8.32162 -25.67493,-25.74025 -27.35726,-52.333256 -0.19923,-3.14952 -0.26587,-19.73416 -0.21089,-52.4937 l 0.0803,-47.8895901 9.525,0 9.525,0 0.15394,48.4187501 c 0.13631,42.8738 0.2042,48.8273 0.59298,51.98605 1.88553,15.320566 5.64351,24.849006 12.47175,31.622286 5.97119,5.92312 13.15762,8.86782 23.57051,9.65821 8.17737,0.62069 15.76067,-0.79946 22.74207,-4.25899 13.42229,-6.65126 22.14465,-19.83748 25.18582,-38.075256 0.42717,-2.56175 0.46948,-6.51701 0.54338,-50.7804 0.0574,-34.3845601 0.16261,-48.1016501 0.37089,-48.3526001 0.4323,-0.52091 18.54681,-0.51322 18.97943,0.008 0.219,0.2639 0.27985,20.6832501 0.23083,77.4567701 l -0.0666,77.098496 -9.65729,0 -9.65729,0 -0.0686,-13.03073 c -0.0397,-7.52752 -0.16955,-13.03073 -0.30758,-13.03073 -0.13142,0 -0.80386,0.98227 -1.49434,2.18282 -5.65134,9.8262 -12.96136,17.15471 -21.54508,21.59958 -5.16683,2.67551 -9.73187,4.19697 -15.57842,5.1921 -2.1153,0.36004 -9.92111,0.97295 -11.14449,0.87508 -0.21828,-0.0175 -2.12328,-0.12306 -4.23334,-0.23466 z"
           id="path4792"
           inkscape:connector-curvature="0" />
        <path
           style="fill:#ffffff;fill-opacity:1;stroke-width:0.26458332"
           d="m 522.22476,-79.949178 -0.0661,114.634353 -0.0666,114.633825 9.59165,-0.0692 9.59115,-0.0698 0.13229,-12.30313 c 0.0806,-7.49358 0.23008,-12.28992 0.3824,-12.26952 0.13759,0.0185 0.971,1.17702 1.85209,2.5745 8.64232,13.70716 20.09452,21.80516 34.8325,24.63054 1.95085,0.37399 4.7372,0.79044 6.19239,0.92554 3.61135,0.33528 12.30383,0.12573 16.00729,-0.38603 19.529,-2.69856 35.73682,-13.38715 46.23337,-30.49013 6.97484,-11.36473 11.48442,-25.435562 13.16508,-41.076565 0.58939,-5.485156 0.79791,-16.373448 0.42064,-21.960416 -2.04118,-30.226582 -14.34764,-51.9949902 -35.08055,-62.0541044 -7.84897,-3.8081214 -15.39372,-5.5578374 -25.26771,-5.8595683 -12.95421,-0.3958695 -24.09764,2.1746633 -34.1085,7.8677293 -9.58043,5.448247 -16.73452,12.7753264 -23.38617,23.9525434 -0.46535,0.78195 -0.83437,1.153107 -0.99116,0.996315 -0.15462,-0.154622 -0.27538,-19.9628914 -0.31678,-51.96324 l -0.0672,-51.713632 -9.525,0 z m 71.32487,87.5853375 c 7.28342,0.018627 14.42468,1.5127816 20.39151,4.5082615 6.73508,3.381164 11.78904,7.906121 16.23259,14.533483 7.72511,11.521678 11.17864,26.561441 10.42003,45.379137 -1.27619,31.657449 -14.11727,54.280509 -35.03557,61.724409 -2.65269,0.94398 -7.44725,1.95688 -10.81744,2.28512 -10.58161,1.03061 -21.29779,-1.40329 -30.00076,-6.81302 -13.07486,-8.12731 -21.60034,-22.63452 -23.07508,-39.264268 -0.21243,-2.39694 -0.27448,-8.103156 -0.19428,-17.935337 0.10567,-12.958259 0.17343,-14.768406 0.66715,-17.859374 2.05771,-12.882801 6.99481,-23.336568 14.84042,-31.421864 4.09266,-4.21767 7.59204,-6.835695 12.76459,-9.549791 7.11525,-3.7334562 15.55226,-5.6078438 23.80684,-5.5867565 z"
           id="path4794"
           inkscape:connector-curvature="0" />
        <path
           style="fill:#ffffff;fill-opacity:1;stroke-width:0.26458332"
           d="m -226.20602,-67.64346 c -39.67861,-0.0025 -40.41074,0.0069 -40.67969,0.509508 -0.29707,0.555069 -0.40955,215.255342 -0.11316,216.027662 0.14483,0.3774 2.54722,0.41857 24.4729,0.41857 l 24.31275,0 0.0672,-37.24011 0.0667,-37.2401 16.00729,-0.160205 c 17.13191,-0.171609 20.52191,-0.37502 28.575,-1.713574 22.00037,-3.656833 39.97193,-13.85353 51.72348,-29.347054 7.07546,-9.32852 10.98997,-19.200521 12.74651,-32.146874 0.54883,-4.0452412 0.62357,-15.2802961 0.13229,-19.84375 -1.47957,-13.742749 -5.3227,-24.510867 -11.88508,-33.299267 -2.01658,-2.700629 -6.54981,-7.346262 -9.32553,-9.557041 -10.49613,-8.359828 -24.84477,-13.537539 -42.8625,-15.466748 -7.89646,-0.84545 -13.16477,-0.938027 -53.23808,-0.941017 z m 16.55765,37.610626 c 7.45837,0.0012 17.61339,0.19259 19.61481,0.475933 7.53414,1.066588 13.09256,2.943754 17.82476,6.019773 2.36654,1.538341 6.33325,5.714153 7.7401,8.147844 3.32737,5.7559837 4.70855,12.3390815 4.38009,20.8777941 -0.71887,18.6899809 -10.64934,29.1271319 -29.95527,31.4838549 -2.69621,0.329089 -6.11286,0.421164 -15.63265,0.421164 -6.7002,0 -12.26142,-0.07922 -12.35842,-0.176212 -0.097,-0.097 -0.17674,-15.143692 -0.17674,-33.4372479 0,-29.1479551 0.0492,-33.3018341 0.39481,-33.5886421 0.18968,-0.157401 3.69348,-0.225028 8.16851,-0.224261 z"
           id="path4796"
           inkscape:connector-curvature="0" />
        <path
           style="fill:#ffffff;fill-opacity:1;stroke-width:0.26458332"
           d="m -96.855895,149.13626 c -0.097,-0.0969 -0.17639,-34.85896 -0.17639,-77.248906 0,-75.9286701 0.008,-77.0767001 0.51178,-77.3465201 0.61103,-0.32703 46.53193,-0.38291 47.04472,-0.0573 0.2532,0.16082 0.34403,3.40932 0.39687,14.1953 0.0477,9.7342001 0.1555,14.0157401 0.35462,14.0820701 0.15735,0.0524 0.6191,-0.7711 1.02611,-1.83007 3.79566,-9.87594 9.93746,-18.0815701 17.0956,-22.8403101 7.21127,-4.79404 16.97644,-7.08515 26.6584399,-6.25459 3.91770999,0.33607 7.38941,1.13982 7.91654,1.83277 0.25834,0.33956 0.32983,5.10082 0.32668,21.7492701 -0.003,11.723 -0.098,21.46245 -0.21278,21.64319 -0.15663,0.24667 -0.79917,0.0689 -2.57564,-0.71255 -2.8517,-1.25447 -5.95164,-2.17144 -9.51065,-2.81327 -3.6507199,-0.65836 -11.5169399,-0.67855 -14.7031899,-0.0377 -14.14293,2.84442 -23.08992,14.00582 -25.81701,32.20677 -0.41267,2.75416 -0.46492,6.86298 -0.55105,43.325516 l -0.0951,40.28281 -23.75656,0 c -13.06613,0 -23.83597,-0.0794 -23.93297,-0.17639 z"
           id="path4798"
           inkscape:connector-curvature="0" />
        <path
           style="fill:#ffffff;fill-opacity:1;stroke-width:0.26458332"
           d="m 313.19434,148.98193 c -0.0691,-0.1819 -0.0951,-51.765726 -0.0579,-114.630726 l 0.0677,-114.3 9.525,0 9.525,0 0.0664,114.63073 0.0665,114.630726 -9.5336,0 c -7.38357,0 -9.56194,-0.0746 -9.65912,-0.33073 z"
           id="path4800"
           inkscape:connector-curvature="0" />
        <path
           style="fill:#ffffff;fill-opacity:1;stroke-width:0.26458332"
           d="m -415.47201,105.47916 c 0.0879,-4.04979 0.3387,-23.496236 0.55737,-43.214306 0.21867,-19.71807 0.4513,-36.08917 0.51695,-36.38021 0.0816,-0.36182 21.96415,-14.78431 69.18845,-45.60123 37.988,-24.78961 69.31327,-45.13591 69.61172,-45.21393 0.5403,-0.14132 0.54192,-0.11049 0.38264,7.23661 -0.088,4.05821 -0.33906,23.74964 -0.55798,43.75875 -0.21889,20.0091199 -0.45178,36.61834 -0.5175,36.90938 -0.0822,0.36396 -21.69723,14.44784 -69.23412,45.11146 -38.01302,24.52026 -69.33795,44.621556 -69.61095,44.669526 -0.47878,0.0842 -0.49071,-0.17386 -0.33658,-7.27605 z"
           id="path4802"
           inkscape:connector-curvature="0" />
        <path
           style="fill:#ffffff;fill-opacity:1;stroke-width:0.26458332"
           d="m -500.09879,67.334344 c -0.24141,-0.3906 -1.23745,-85.05888 -1.00339,-85.29294 0.7838,-0.7838 140.17549,-93.818464 140.33182,-93.662134 0.10732,0.10733 0.43855,20.964114 0.73607,46.348424 0.43506,37.11932 0.47566,46.21218 0.20741,46.45427 -0.25333,0.22863 -139.09683,85.83436 -139.94911,86.28743 -0.0991,0.0526 -0.24435,-0.008 -0.3228,-0.13505 z"
           id="path4804"
           inkscape:connector-curvature="0" />
      </g>
    </g>
  </g>
</svg>
