<?xml version="1.0" standalone="no"?>
<!DOCTYPE svg PUBLIC "-//W3C//DTD SVG 20010904//EN"
 "http://www.w3.org/TR/2001/REC-SVG-20010904/DTD/svg10.dtd">
<svg version="1.0" xmlns="http://www.w3.org/2000/svg"
 width="840.000000pt" height="840.000000pt" viewBox="0 0 840.000000 840.000000"
 preserveAspectRatio="xMidYMid meet">
<metadata>
Created by potrace 1.11, written by Peter Selinger 2001-2013
</metadata>
<g transform="translate(0.000000,840.000000) scale(0.100000,-0.100000)"
fill="#000000" stroke="none">
<path d="M2641 7450 c-188 -127 -347 -230 -352 -230 -5 0 -9 -4 -9 -10 0 -5
-6 -10 -14 -10 -8 0 -16 -3 -18 -7 -1 -5 -41 -33 -88 -63 -47 -30 -89 -59 -95
-63 -21 -17 -818 -547 -822 -547 -2 0 -13 -8 -24 -18 -10 -11 -32 -25 -47 -33
-15 -8 -36 -22 -46 -31 -11 -10 -26 -18 -33 -18 -7 0 -13 -3 -13 -7 0 -5 -21
-21 -48 -38 -26 -16 -49 -32 -52 -35 -3 -3 -23 -17 -45 -30 -22 -13 -50 -32
-62 -43 -13 -11 -23 -16 -23 -11 0 5 -4 4 -8 -2 -4 -6 -23 -22 -43 -35 -149
-98 -214 -142 -226 -155 -8 -8 -21 -14 -29 -14 -8 0 -14 -3 -14 -7 0 -5 -20
-21 -45 -36 l-44 -28 4 -537 c6 -607 12 -1013 17 -1017 5 -4 153 87 156 97 2
4 8 8 14 8 6 0 30 14 55 30 24 17 48 30 53 30 5 0 15 6 22 13 19 18 247 157
258 157 6 0 10 4 10 9 0 5 9 12 19 16 11 3 32 16 47 28 15 12 34 22 42 24 8 1
18 6 21 10 5 7 233 151 395 248 73 44 198 121 220 135 13 8 48 30 77 48 30 18
63 38 73 45 139 87 238 147 245 147 5 0 14 7 21 15 7 8 32 25 56 37 24 12 44
25 44 30 0 4 4 8 10 8 10 0 111 59 120 70 3 4 10 9 15 11 6 2 54 31 108 64 54
33 105 65 115 70 9 6 28 17 42 26 14 9 68 42 120 74 138 84 174 107 186 121
11 14 11 295 -1 1049 -4 231 -7 468 -8 528 -1 59 -4 107 -7 107 -3 -1 -160
-104 -349 -230z"/>
<path d="M4728 6880 l-23 -6 -2 -443 c-1 -244 -4 -449 -7 -457 -3 -7 -1 -16 3
-18 7 -5 8 -30 1 -61 -1 -5 -2 -14 -1 -20 4 -24 1 -528 -3 -532 -2 -3 0 -17 4
-33 4 -16 6 -31 3 -34 -3 -3 -5 -36 -4 -73 1 -37 2 -75 2 -83 -1 -45 0 -193 1
-199 0 -3 0 -10 -1 -16 -1 -5 -1 -62 -1 -125 1 -63 1 -121 1 -127 -1 -18 -1
-141 0 -155 0 -12 0 -443 0 -478 0 -55 -1 -148 0 -165 0 -11 0 -125 0 -254 0
-129 2 -237 4 -239 2 -3 0 -12 -5 -22 -5 -10 -7 -20 -4 -23 3 -3 6 -89 6 -191
0 -102 3 -187 7 -187 27 -6 872 -6 876 0 2 5 5 308 6 675 2 473 5 669 13 671
6 2 155 6 331 10 176 3 331 7 345 9 14 2 45 7 70 11 179 27 353 78 497 145 75
36 202 110 229 135 7 5 25 19 40 30 54 37 201 191 253 266 110 155 167 302
208 539 9 51 9 367 0 405 -5 22 -10 56 -12 75 -7 70 -42 191 -85 295 -40 97
-44 105 -52 105 -4 0 -8 5 -8 11 0 32 -163 215 -255 286 -49 37 -195 119 -250
140 -116 43 -231 77 -299 87 -21 4 -41 8 -45 10 -3 2 -33 7 -66 10 -33 4 -67
9 -75 11 -40 12 -440 23 -456 12 -6 -3 -14 -3 -18 0 -8 8 -1195 10 -1228 3z
m1397 -693 c11 -3 36 -8 56 -11 58 -9 180 -56 235 -91 115 -74 199 -205 221
-345 8 -49 10 -275 3 -300 -4 -14 -13 -45 -20 -70 -29 -106 -79 -184 -166
-261 -28 -24 -140 -84 -146 -78 -2 1 -14 -4 -28 -11 -65 -35 -173 -46 -432
-46 l-253 1 -2 590 c-1 325 0 600 3 611 6 21 10 21 257 19 139 -1 261 -5 272
-8z"/>
<path d="M4485 6794 c-27 -20 -57 -39 -65 -42 -13 -6 -172 -109 -294 -191 -50
-33 -46 -31 -200 -130 -72 -46 -176 -114 -231 -150 -55 -36 -104 -68 -110 -71
-5 -3 -57 -36 -115 -74 -58 -38 -130 -85 -160 -105 -30 -19 -58 -40 -62 -46
-5 -6 -8 -6 -8 0 0 6 -3 6 -8 0 -4 -6 -32 -27 -62 -46 -30 -20 -102 -67 -160
-105 -58 -38 -109 -71 -115 -74 -5 -3 -65 -42 -133 -87 -68 -46 -127 -83 -133
-83 -5 0 -9 -4 -9 -9 0 -5 -12 -15 -27 -22 -16 -8 -122 -77 -238 -154 -115
-77 -216 -141 -222 -143 -7 -2 -13 -7 -13 -11 0 -4 -22 -20 -50 -36 -47 -29
-50 -32 -50 -75 -5 -248 -11 -632 -15 -940 -3 -206 -6 -408 -7 -448 -2 -39 1
-72 5 -72 4 0 4 -7 -1 -16 -5 -9 -7 -26 -4 -39 4 -23 21 -24 47 -3 6 5 39 27
75 50 136 86 215 137 226 147 7 5 15 7 18 4 3 -4 6 -1 6 5 0 6 9 14 20 17 11
3 26 12 32 19 7 6 42 30 78 51 36 22 67 42 70 45 3 4 23 17 45 30 63 38 219
138 232 150 7 5 24 15 38 22 14 6 25 15 25 20 0 4 4 8 10 8 11 0 152 90 161
103 3 5 10 9 15 10 15 1 257 157 262 169 2 5 8 8 13 8 5 0 43 23 85 50 41 28
79 50 84 50 5 0 10 3 12 8 3 7 255 172 263 172 3 0 13 7 22 15 10 8 55 38 100
67 261 168 380 246 482 315 l115 78 2 185 c1 102 5 410 9 685 4 275 8 549 8
609 1 64 -3 111 -8 112 -6 2 -32 -13 -60 -32z"/>
<path d="M1757 5015 c-20 -14 -41 -25 -46 -25 -6 0 -11 -3 -11 -7 0 -5 -24
-21 -53 -37 -28 -17 -56 -34 -62 -38 -5 -5 -75 -52 -155 -104 -80 -52 -152
-99 -160 -104 -8 -5 -94 -61 -190 -124 -96 -63 -181 -120 -187 -126 -7 -6 -13
-7 -13 -3 0 4 -4 3 -8 -3 -4 -5 -54 -41 -112 -78 -58 -38 -130 -86 -162 -107
-31 -22 -59 -39 -62 -39 -3 0 -14 -7 -23 -15 -10 -8 -26 -21 -37 -28 -18 -13
-19 -41 -18 -778 0 -420 1 -779 1 -797 l1 -32 192 127 c106 71 195 130 198
133 9 9 251 170 255 170 3 0 28 18 57 40 29 22 59 40 66 40 6 0 12 5 12 10 0
6 8 14 18 17 9 4 33 18 53 32 20 14 47 33 59 41 12 8 40 27 61 43 21 15 43 27
48 27 5 0 11 4 13 8 2 4 46 36 98 70 52 34 104 69 115 78 11 8 37 25 57 37 20
12 38 29 40 37 5 24 2 1550 -4 1555 -2 2 -21 -7 -41 -20z"/>
<path d="M7165 3468 c-11 -6 -22 -14 -25 -17 -3 -3 -300 -202 -660 -441 -360
-239 -656 -438 -658 -442 -2 -5 -10 -8 -17 -8 -7 0 -15 -3 -17 -7 -1 -5 -136
-96 -298 -203 -162 -107 -297 -197 -300 -200 -3 -3 -30 -21 -60 -40 -30 -19
-57 -37 -60 -40 -3 -3 -36 -26 -75 -50 -38 -25 -75 -49 -81 -55 -6 -5 -27 -19
-47 -30 -20 -11 -37 -23 -37 -27 0 -5 -4 -8 -10 -8 -11 0 -103 -62 -108 -72
-2 -5 -8 -8 -13 -8 -9 0 -68 -38 -79 -51 -3 -3 -14 -11 -26 -17 -18 -10 -67
20 -410 249 -214 143 -396 263 -404 267 -8 3 -17 9 -20 12 -3 4 -183 125 -400
270 -217 145 -396 267 -398 272 -2 4 -8 8 -13 8 -11 0 -283 182 -287 192 -2 5
-7 8 -12 8 -9 0 -466 303 -492 327 -10 9 -18 13 -18 10 0 -4 -8 0 -18 9 -10 8
-37 26 -60 40 l-42 25 -1 -43 c0 -24 -1 -384 -1 -801 l-1 -758 24 -17 c29 -21
131 -87 219 -142 36 -23 124 -79 195 -125 72 -46 171 -110 220 -141 50 -31 92
-61 93 -65 2 -5 8 -7 13 -3 5 3 9 0 9 -5 0 -6 7 -11 15 -11 8 0 15 -4 15 -10
0 -5 5 -10 10 -10 11 0 71 -39 81 -53 3 -5 8 -8 10 -6 2 1 39 -21 82 -49 43
-29 81 -52 83 -52 6 0 96 -60 104 -69 3 -3 15 -12 28 -18 49 -28 66 -38 76
-46 6 -5 47 -31 91 -59 44 -28 109 -70 145 -93 36 -23 80 -50 98 -61 17 -10
32 -22 32 -26 0 -4 6 -8 14 -8 8 0 21 -6 28 -13 8 -6 22 -16 31 -22 9 -5 130
-82 267 -170 138 -88 262 -167 275 -175 14 -8 86 -54 162 -102 124 -80 139
-87 157 -74 12 7 32 19 46 27 14 8 27 16 30 19 14 14 121 80 130 80 5 0 10 3
10 8 0 4 20 18 45 32 25 14 45 28 45 32 0 5 5 8 11 8 7 0 34 16 60 35 27 19
54 35 59 35 6 0 10 5 10 10 0 6 6 10 14 10 8 0 21 6 28 13 20 19 176 117 186
117 6 0 13 7 16 16 3 8 10 13 15 10 5 -4 11 -3 13 1 3 9 36 31 171 117 48 31
92 56 97 56 4 0 10 4 12 8 4 11 115 82 128 82 6 0 10 4 10 8 0 5 11 14 25 20
14 7 31 17 38 22 7 6 53 37 102 68 490 315 558 359 572 371 7 6 14 11 17 11 5
0 167 105 183 119 7 6 15 11 18 11 3 0 53 32 111 70 59 39 108 70 111 70 2 0
9 5 16 10 28 24 218 150 226 150 19 0 24 41 26 200 2 91 4 210 4 265 1 55 1
105 0 110 -1 6 0 15 1 20 1 6 4 141 5 300 2 160 5 386 6 502 2 117 1 215 -2
217 -2 3 -13 0 -24 -6z"/>
</g>
</svg>
